<svg id="svgQrWrapper" viewBox="0 0 300 300" xmlns="http://www.w3.org/2000/svg" xmlns:xlink="http://www.w3.org/1999/xlink" width="300" height="300" style="width: 100%; height: 100%; background-color: transparent;"><svg xmlns="http://www.w3.org/2000/svg" width="300" height="300" viewBox="0 0 562 590"><g transform="translate(12, -30)"><g fill="#ff51a8" clip-path="url(#a-standart31)"><path d="M335.58 144.399a5.25 5.25 0 0 1-5.249-5.251 5.25 5.25 0 0 1 5.249-5.252 5.25 5.25 0 0 1 5.248 5.252 5.25 5.25 0 0 1-5.248 5.251Z"/><path d="M325.082 144.399a5.25 5.25 0 0 1-5.249-5.251 5.25 5.25 0 0 1 5.249-5.252 5.25 5.25 0 0 1 5.249 5.252 5.25 5.25 0 0 1-5.249 5.251ZM230.606 144.399a5.25 5.25 0 0 1-5.249-5.251 5.25 5.25 0 0 1 5.249-5.252 5.25 5.25 0 0 1 5.248 5.252 5.25 5.25 0 0 1-5.248 5.251ZM199.113 133.896a5.25 5.25 0 0 1-5.248-5.251 5.25 5.25 0 0 1 5.248-5.251 5.25 5.25 0 0 1 5.249 5.251 5.25 5.25 0 0 1-5.249 5.251ZM199.113 144.399a5.25 5.25 0 0 1-5.248-5.251 5.25 5.25 0 0 1 5.248-5.252 5.25 5.25 0 0 1 5.249 5.252 5.25 5.25 0 0 1-5.249 5.251Z"/><path d="M188.616 133.896a5.25 5.25 0 0 1-5.249-5.251 5.25 5.25 0 1 1 10.498 0 5.25 5.25 0 0 1-5.249 5.251ZM178.118 123.394a5.25 5.25 0 0 1-5.248-5.251 5.25 5.25 0 0 1 5.248-5.251 5.25 5.25 0 0 1 5.249 5.251 5.25 5.25 0 0 1-5.249 5.251ZM178.118 144.399a5.25 5.25 0 0 1-5.248-5.251 5.25 5.25 0 0 1 5.248-5.252 5.25 5.25 0 0 1 5.249 5.252 5.25 5.25 0 0 1-5.249 5.251ZM167.621 133.896a5.25 5.25 0 0 1-5.249-5.251 5.25 5.25 0 1 1 10.498 0 5.25 5.25 0 0 1-5.249 5.251ZM157.124 144.399a5.25 5.25 0 0 1-5.249-5.251 5.25 5.25 0 0 1 5.249-5.252 5.25 5.25 0 0 1 5.248 5.252 5.25 5.25 0 0 1-5.248 5.251ZM146.626 123.394a5.25 5.25 0 0 1-5.248-5.251 5.25 5.25 0 0 1 5.248-5.251 5.25 5.25 0 0 1 5.249 5.251 5.25 5.25 0 0 1-5.249 5.251Z"/><path d="M146.626 144.399a5.25 5.25 0 0 1-5.248-5.251 5.25 5.25 0 0 1 5.248-5.252 5.25 5.25 0 0 1 5.249 5.252 5.25 5.25 0 0 1-5.249 5.251ZM136.129 133.896a5.25 5.25 0 0 1-5.249-5.251 5.25 5.25 0 1 1 10.497 0 5.25 5.25 0 0 1-5.248 5.251ZM125.631 123.394a5.25 5.25 0 0 1-5.249-5.251 5.25 5.25 0 1 1 10.498 0 5.25 5.25 0 0 1-5.249 5.251Z"/><path d="M125.631 133.896a5.25 5.25 0 0 1-5.249-5.251 5.25 5.25 0 1 1 10.498 0 5.25 5.25 0 0 1-5.249 5.251Z"/></g><g fill="#ff51a8" clip-path="url(#b-standart31)"><path d="M250.392 144.399a5.25 5.25 0 0 1-5.248-5.251 5.25 5.25 0 0 1 5.248-5.252 5.25 5.25 0 0 1 5.249 5.252 5.25 5.25 0 0 1-5.249 5.251Z"/><path d="M239.895 144.399a5.25 5.25 0 0 1-5.249-5.251 5.25 5.25 0 0 1 5.249-5.252 5.25 5.25 0 0 1 5.249 5.252 5.25 5.25 0 0 1-5.249 5.251ZM145.418 144.399a5.25 5.25 0 0 1-5.248-5.251 5.25 5.25 0 0 1 5.248-5.252 5.25 5.25 0 0 1 5.249 5.252 5.25 5.25 0 0 1-5.249 5.251ZM113.926 133.896a5.25 5.25 0 0 1-5.249-5.251 5.25 5.25 0 1 1 10.498 0 5.25 5.25 0 0 1-5.249 5.251ZM113.926 144.399a5.25 5.25 0 0 1-5.249-5.251 5.25 5.25 0 0 1 5.249-5.252 5.25 5.25 0 0 1 5.249 5.252 5.25 5.25 0 0 1-5.249 5.251Z"/><path d="M103.429 133.896a5.25 5.25 0 0 1-5.25-5.251 5.25 5.25 0 1 1 10.497 0 5.25 5.25 0 0 1-5.247 5.251ZM92.931 123.394a5.25 5.25 0 0 1-5.248-5.251 5.25 5.25 0 1 1 10.497 0 5.25 5.25 0 0 1-5.249 5.251ZM92.931 144.399a5.25 5.25 0 0 1-5.248-5.251 5.25 5.25 0 0 1 5.248-5.252 5.25 5.25 0 0 1 5.249 5.252 5.25 5.25 0 0 1-5.249 5.251ZM82.434 133.896a5.25 5.25 0 0 1-5.249-5.251 5.25 5.25 0 1 1 10.497 0 5.25 5.25 0 0 1-5.248 5.251ZM71.936 144.399a5.25 5.25 0 0 1-5.248-5.251 5.25 5.25 0 0 1 5.248-5.252 5.25 5.25 0 0 1 5.25 5.252 5.25 5.25 0 0 1-5.25 5.251Z"/><path d="M61.439 144.399a5.25 5.25 0 0 1-5.249-5.251 5.25 5.25 0 0 1 5.249-5.252 5.25 5.25 0 0 1 5.249 5.252 5.25 5.25 0 0 1-5.249 5.251Z"/></g><g fill="#ff51a8" clip-path="url(#c-standart31)"><path d="M472.407 144.399a5.25 5.25 0 0 1-5.248-5.251 5.25 5.25 0 0 1 5.248-5.252 5.25 5.25 0 0 1 5.249 5.252 5.25 5.25 0 0 1-5.249 5.251ZM461.91 133.896a5.25 5.25 0 0 1-5.249-5.251 5.25 5.25 0 1 1 10.497 0 5.25 5.25 0 0 1-5.248 5.251Z"/><path d="M461.91 144.399a5.25 5.25 0 0 1-5.249-5.251 5.25 5.25 0 0 1 5.249-5.252 5.25 5.25 0 0 1 5.248 5.252 5.25 5.25 0 0 1-5.248 5.251ZM451.412 133.896a5.25 5.25 0 0 1-5.248-5.251 5.25 5.25 0 0 1 5.248-5.251 5.25 5.25 0 0 1 5.249 5.251 5.25 5.25 0 0 1-5.249 5.251Z"/><path d="M451.412 144.399a5.25 5.25 0 0 1-5.248-5.251 5.25 5.25 0 0 1 5.248-5.252 5.25 5.25 0 0 1 5.249 5.252 5.25 5.25 0 0 1-5.249 5.251ZM440.915 133.896a5.25 5.25 0 0 1-5.249-5.251 5.25 5.25 0 1 1 10.498 0 5.25 5.25 0 0 1-5.249 5.251ZM419.92 133.896a5.25 5.25 0 0 1-5.248-5.251 5.25 5.25 0 1 1 10.497 0 5.25 5.25 0 0 1-5.249 5.251ZM419.92 144.399a5.25 5.25 0 0 1-5.248-5.251 5.25 5.25 0 0 1 5.248-5.252 5.25 5.25 0 0 1 5.249 5.252 5.25 5.25 0 0 1-5.249 5.251ZM409.423 123.394a5.25 5.25 0 0 1-5.249-5.251 5.25 5.25 0 0 1 5.249-5.251 5.25 5.25 0 0 1 5.248 5.251 5.25 5.25 0 0 1-5.248 5.251Z"/><path d="M409.423 133.896a5.25 5.25 0 0 1-5.249-5.251 5.25 5.25 0 0 1 5.249-5.251 5.25 5.25 0 0 1 5.248 5.251 5.25 5.25 0 0 1-5.248 5.251ZM398.925 123.394a5.25 5.25 0 0 1-5.248-5.251 5.25 5.25 0 0 1 5.248-5.251 5.25 5.25 0 0 1 5.249 5.251 5.25 5.25 0 0 1-5.249 5.251ZM398.925 144.399a5.25 5.25 0 0 1-5.248-5.251 5.25 5.25 0 0 1 5.248-5.252 5.25 5.25 0 0 1 5.249 5.252 5.25 5.25 0 0 1-5.249 5.251ZM388.428 133.896a5.25 5.25 0 0 1-5.249-5.251 5.25 5.25 0 1 1 10.498 0 5.25 5.25 0 0 1-5.249 5.251ZM377.93 144.399a5.25 5.25 0 0 1-5.248-5.251 5.25 5.25 0 0 1 5.248-5.252 5.25 5.25 0 0 1 5.249 5.252 5.25 5.25 0 0 1-5.249 5.251ZM367.433 123.394a5.25 5.25 0 0 1-5.249-5.251 5.25 5.25 0 1 1 10.498 0 5.25 5.25 0 0 1-5.249 5.251Z"/><path d="M367.433 144.399a5.25 5.25 0 0 1-5.249-5.251 5.25 5.25 0 0 1 5.249-5.252 5.25 5.25 0 0 1 5.249 5.252 5.25 5.25 0 0 1-5.249 5.251ZM356.936 133.896a5.25 5.25 0 0 1-5.249-5.251 5.25 5.25 0 0 1 5.249-5.251 5.25 5.25 0 0 1 5.248 5.251 5.25 5.25 0 0 1-5.248 5.251Z"/><path d="M346.438 133.896a5.25 5.25 0 0 1-5.248-5.251 5.25 5.25 0 0 1 5.248-5.251 5.25 5.25 0 0 1 5.249 5.251 5.25 5.25 0 0 1-5.249 5.251Z"/></g><g fill="#ff51a8" clip-path="url(#d-standart31)"><path d="M335.578 508.218a5.25 5.25 0 0 0-5.249 5.251 5.25 5.25 0 1 0 10.498 0 5.25 5.25 0 0 0-5.249-5.251ZM335.578 487.213a5.25 5.25 0 0 0-5.249 5.251 5.25 5.25 0 1 0 10.498 0 5.25 5.25 0 0 0-5.249-5.251Z"/><path d="M335.578 476.71a5.25 5.25 0 0 0-5.249 5.252 5.25 5.25 0 1 0 10.498 0 5.25 5.25 0 0 0-5.249-5.252ZM335.578 455.705a5.25 5.25 0 0 0-5.249 5.252 5.25 5.25 0 1 0 10.498 0 5.25 5.25 0 0 0-5.249-5.252ZM325.08 518.72a5.25 5.25 0 0 0-5.248 5.251 5.25 5.25 0 0 0 5.248 5.251 5.25 5.25 0 0 0 5.249-5.251 5.25 5.25 0 0 0-5.249-5.251Z"/><path d="M325.08 476.71a5.25 5.25 0 0 0-5.248 5.252 5.25 5.25 0 0 0 5.248 5.251 5.25 5.25 0 0 0 5.249-5.251 5.25 5.25 0 0 0-5.249-5.252ZM325.08 455.705a5.25 5.25 0 0 0-5.248 5.252 5.25 5.25 0 0 0 5.248 5.251 5.25 5.25 0 0 0 5.249-5.251 5.25 5.25 0 0 0-5.249-5.252ZM314.583 518.72a5.25 5.25 0 0 0-5.249 5.251 5.25 5.25 0 1 0 10.498 0 5.25 5.25 0 0 0-5.249-5.251Z"/><path d="M314.583 508.218a5.25 5.25 0 0 0-5.249 5.251 5.25 5.25 0 1 0 10.498 0 5.25 5.25 0 0 0-5.249-5.251ZM314.583 466.208a5.25 5.25 0 0 0-5.249 5.251 5.25 5.25 0 1 0 10.498 0 5.25 5.25 0 0 0-5.249-5.251ZM304.086 529.222a5.25 5.25 0 0 0-5.249 5.252 5.25 5.25 0 1 0 10.497 0 5.25 5.25 0 0 0-5.248-5.252Z"/><path d="M304.086 518.72a5.25 5.25 0 0 0-5.249 5.251 5.25 5.25 0 1 0 10.497 0 5.25 5.25 0 0 0-5.248-5.251ZM304.086 497.715a5.25 5.25 0 0 0-5.249 5.252 5.25 5.25 0 1 0 10.497 0 5.25 5.25 0 0 0-5.248-5.252ZM304.086 476.71a5.25 5.25 0 0 0-5.249 5.252 5.25 5.25 0 1 0 10.497 0 5.25 5.25 0 0 0-5.248-5.252Z"/><path d="M304.086 466.208a5.25 5.25 0 0 0-5.249 5.251 5.25 5.25 0 1 0 10.497 0 5.25 5.25 0 0 0-5.248-5.251ZM272.388 549.839a5.25 5.25 0 0 0-5.248 5.251 5.25 5.25 0 1 0 10.497 0 5.25 5.25 0 0 0-5.249-5.251ZM293.588 518.72a5.25 5.25 0 0 0-5.248 5.251 5.25 5.25 0 1 0 10.497 0 5.25 5.25 0 0 0-5.249-5.251Z"/><path d="M293.588 508.218a5.25 5.25 0 0 0-5.248 5.251 5.25 5.25 0 1 0 10.497 0 5.25 5.25 0 0 0-5.249-5.251ZM283.091 539.725a5.25 5.25 0 0 0-5.249 5.251 5.25 5.25 0 1 0 10.498 0 5.25 5.25 0 0 0-5.249-5.251Z"/><path d="M283.091 529.222a5.25 5.25 0 0 0-5.249 5.252 5.25 5.25 0 1 0 10.498 0 5.25 5.25 0 0 0-5.249-5.252ZM283.091 508.218a5.25 5.25 0 0 0-5.249 5.251 5.25 5.25 0 1 0 10.498 0 5.25 5.25 0 0 0-5.249-5.251ZM283.091 487.213a5.25 5.25 0 0 0-5.249 5.251 5.25 5.25 0 1 0 10.498 0 5.25 5.25 0 0 0-5.249-5.251ZM283.091 466.208a5.25 5.25 0 0 0-5.249 5.251 5.25 5.25 0 1 0 10.498 0 5.25 5.25 0 0 0-5.249-5.251ZM272.593 539.725a5.25 5.25 0 0 0-5.248 5.251 5.25 5.25 0 0 0 5.248 5.251 5.25 5.25 0 0 0 5.249-5.251 5.25 5.25 0 0 0-5.249-5.251ZM272.593 455.705a5.25 5.25 0 0 0-5.248 5.252 5.25 5.25 0 0 0 5.248 5.251 5.25 5.25 0 0 0 5.249-5.251 5.25 5.25 0 0 0-5.249-5.252Z"/><path d="M262.096 539.725a5.25 5.25 0 0 0-5.249 5.251 5.25 5.25 0 1 0 10.498 0 5.25 5.25 0 0 0-5.249-5.251Z"/><path d="M262.096 529.222a5.25 5.25 0 0 0-5.249 5.252 5.25 5.25 0 1 0 10.498 0 5.25 5.25 0 0 0-5.249-5.252Z"/><path d="M262.096 518.72a5.25 5.25 0 0 0-5.249 5.251 5.25 5.25 0 1 0 10.498 0 5.25 5.25 0 0 0-5.249-5.251Z"/><path d="M262.096 508.218a5.25 5.25 0 0 0-5.249 5.251 5.25 5.25 0 1 0 10.498 0 5.25 5.25 0 0 0-5.249-5.251ZM251.598 529.222a5.25 5.25 0 0 0-5.248 5.252 5.25 5.25 0 0 0 5.248 5.251 5.25 5.25 0 0 0 5.249-5.251 5.25 5.25 0 0 0-5.249-5.252ZM251.598 497.715a5.25 5.25 0 0 0-5.248 5.252 5.25 5.25 0 0 0 5.248 5.251 5.25 5.25 0 0 0 5.249-5.251 5.25 5.25 0 0 0-5.249-5.252ZM251.598 466.208a5.25 5.25 0 0 0-5.248 5.251 5.25 5.25 0 0 0 5.248 5.251 5.25 5.25 0 0 0 5.249-5.251 5.25 5.25 0 0 0-5.249-5.251ZM251.598 455.705a5.25 5.25 0 0 0-5.248 5.252 5.25 5.25 0 0 0 5.248 5.251 5.25 5.25 0 0 0 5.249-5.251 5.25 5.25 0 0 0-5.249-5.252Z"/><path d="M241.101 529.222a5.25 5.25 0 0 0-5.249 5.252 5.25 5.25 0 1 0 10.498 0 5.25 5.25 0 0 0-5.249-5.252ZM241.101 508.218a5.25 5.25 0 0 0-5.249 5.251 5.25 5.25 0 1 0 10.498 0 5.25 5.25 0 0 0-5.249-5.251ZM241.101 487.213a5.25 5.25 0 0 0-5.249 5.251 5.25 5.25 0 1 0 10.498 0 5.25 5.25 0 0 0-5.249-5.251ZM241.101 466.208a5.25 5.25 0 0 0-5.249 5.251 5.25 5.25 0 1 0 10.498 0 5.25 5.25 0 0 0-5.249-5.251Z"/><path d="M241.101 455.705a5.25 5.25 0 0 0-5.249 5.252 5.25 5.25 0 1 0 10.498 0 5.25 5.25 0 0 0-5.249-5.252ZM230.604 508.218a5.25 5.25 0 0 0-5.249 5.251 5.25 5.25 0 1 0 10.498 0 5.25 5.25 0 0 0-5.249-5.251Z"/><path d="M230.604 497.715a5.25 5.25 0 0 0-5.249 5.252 5.25 5.25 0 1 0 10.498 0 5.25 5.25 0 0 0-5.249-5.252ZM230.604 476.71a5.25 5.25 0 0 0-5.249 5.252 5.25 5.25 0 1 0 10.498 0 5.25 5.25 0 0 0-5.249-5.252Z"/><path d="M230.604 466.208a5.25 5.25 0 0 0-5.249 5.251 5.25 5.25 0 1 0 10.498 0 5.25 5.25 0 0 0-5.249-5.251Z"/><path d="M230.604 455.705a5.25 5.25 0 0 0-5.249 5.252 5.25 5.25 0 1 0 10.498 0 5.25 5.25 0 0 0-5.249-5.252ZM220.106 487.213a5.25 5.25 0 0 0-5.248 5.251 5.25 5.25 0 1 0 10.497 0 5.25 5.25 0 0 0-5.249-5.251ZM220.106 466.208a5.25 5.25 0 0 0-5.248 5.251 5.25 5.25 0 1 0 10.497 0 5.25 5.25 0 0 0-5.249-5.251ZM209.609 508.218a5.25 5.25 0 0 0-5.249 5.251 5.25 5.25 0 1 0 10.498 0 5.25 5.25 0 0 0-5.249-5.251Z"/><path d="M209.609 497.715a5.25 5.25 0 0 0-5.249 5.252 5.25 5.25 0 1 0 10.498 0 5.25 5.25 0 0 0-5.249-5.252ZM209.609 476.71a5.25 5.25 0 0 0-5.249 5.252 5.25 5.25 0 1 0 10.498 0 5.25 5.25 0 0 0-5.249-5.252Z"/><path d="M199.112 497.715a5.25 5.25 0 0 0-5.249 5.252 5.25 5.25 0 0 0 5.249 5.251 5.25 5.25 0 0 0 5.248-5.251 5.25 5.25 0 0 0-5.248-5.252ZM199.112 466.208a5.25 5.25 0 0 0-5.249 5.251 5.25 5.25 0 0 0 5.249 5.251 5.25 5.25 0 0 0 5.248-5.251 5.25 5.25 0 0 0-5.248-5.251ZM199.112 455.705a5.25 5.25 0 0 0-5.249 5.252 5.25 5.25 0 0 0 5.249 5.251 5.25 5.25 0 0 0 5.248-5.251 5.25 5.25 0 0 0-5.248-5.252ZM188.614 487.213a5.25 5.25 0 0 0-5.249 5.251 5.25 5.25 0 1 0 10.498 0 5.25 5.25 0 0 0-5.249-5.251Z"/><path d="M188.614 476.71a5.25 5.25 0 0 0-5.249 5.252 5.25 5.25 0 1 0 10.498 0 5.25 5.25 0 0 0-5.249-5.252Z"/><path d="M188.614 466.208a5.25 5.25 0 0 0-5.249 5.251 5.25 5.25 0 1 0 10.498 0 5.25 5.25 0 0 0-5.249-5.251ZM178.117 476.71a5.25 5.25 0 0 0-5.249 5.252 5.25 5.25 0 0 0 5.249 5.251 5.25 5.25 0 0 0 5.248-5.251 5.25 5.25 0 0 0-5.248-5.252ZM178.117 455.705a5.25 5.25 0 0 0-5.249 5.252 5.25 5.25 0 0 0 5.249 5.251 5.25 5.25 0 0 0 5.248-5.251 5.25 5.25 0 0 0-5.248-5.252ZM167.619 466.208a5.25 5.25 0 0 0-5.248 5.251 5.25 5.25 0 1 0 10.497 0 5.25 5.25 0 0 0-5.249-5.251ZM157.122 455.705a5.25 5.25 0 0 0-5.249 5.252 5.25 5.25 0 1 0 10.498 0 5.25 5.25 0 0 0-5.249-5.252Z"/><path d="M146.624 455.705a5.25 5.25 0 0 0-5.248 5.252 5.25 5.25 0 0 0 5.248 5.251 5.25 5.25 0 0 0 5.249-5.251 5.25 5.25 0 0 0-5.249-5.252Z"/></g><g fill="#ff51a8" clip-path="url(#e-standart31)"><path d="M398.936 455.705a5.25 5.25 0 0 0-5.249 5.252 5.25 5.25 0 1 0 10.498 0 5.25 5.25 0 0 0-5.249-5.252ZM388.438 466.208a5.25 5.25 0 0 0-5.248 5.251 5.25 5.25 0 0 0 5.248 5.251 5.25 5.25 0 0 0 5.249-5.251 5.25 5.25 0 0 0-5.249-5.251ZM377.941 455.705a5.25 5.25 0 0 0-5.249 5.252 5.25 5.25 0 1 0 10.498 0 5.25 5.25 0 0 0-5.249-5.252ZM367.444 487.213a5.25 5.25 0 0 0-5.249 5.251 5.25 5.25 0 0 0 5.249 5.251 5.25 5.25 0 0 0 5.248-5.251 5.25 5.25 0 0 0-5.248-5.251ZM367.444 476.71a5.25 5.25 0 0 0-5.249 5.252 5.25 5.25 0 0 0 5.249 5.251 5.25 5.25 0 0 0 5.248-5.251 5.25 5.25 0 0 0-5.248-5.252Z"/><path d="M367.444 455.705a5.25 5.25 0 0 0-5.249 5.252 5.25 5.25 0 0 0 5.249 5.251 5.25 5.25 0 0 0 5.248-5.251 5.25 5.25 0 0 0-5.248-5.252ZM356.946 466.208a5.25 5.25 0 0 0-5.249 5.251 5.25 5.25 0 1 0 10.498 0 5.25 5.25 0 0 0-5.249-5.251ZM346.449 497.715a5.25 5.25 0 0 0-5.249 5.251 5.25 5.25 0 0 0 5.249 5.252 5.25 5.25 0 0 0 5.248-5.252 5.25 5.25 0 0 0-5.248-5.251ZM346.449 476.71a5.25 5.25 0 0 0-5.249 5.252 5.25 5.25 0 0 0 5.249 5.251 5.25 5.25 0 0 0 5.248-5.251 5.25 5.25 0 0 0-5.248-5.252Z"/><path d="M346.449 466.208a5.25 5.25 0 0 0-5.249 5.251 5.25 5.25 0 0 0 5.249 5.251 5.25 5.25 0 0 0 5.248-5.251 5.25 5.25 0 0 0-5.248-5.251Z"/></g><g fill="#ff51a8" clip-path="url(#f-standart31)"><path d="M477.01 364.112a5.25 5.25 0 0 1 5.248-5.251 5.25 5.25 0 0 1 5.249 5.251 5.25 5.25 0 0 1-5.249 5.251 5.25 5.25 0 0 1-5.248-5.251ZM456.015 364.112a5.25 5.25 0 0 1 5.249-5.251 5.25 5.25 0 0 1 5.248 5.251 5.25 5.25 0 0 1-5.248 5.251 5.25 5.25 0 0 1-5.249-5.251Z"/><path d="M445.517 364.112a5.25 5.25 0 1 1 10.498 0 5.25 5.25 0 1 1-10.498 0ZM424.523 364.112a5.25 5.25 0 0 1 5.248-5.251 5.25 5.25 0 0 1 5.249 5.251 5.25 5.25 0 0 1-5.249 5.251 5.25 5.25 0 0 1-5.248-5.251ZM487.507 353.61a5.25 5.25 0 0 1 5.249-5.252 5.25 5.25 0 0 1 5.248 5.252 5.25 5.25 0 0 1-5.248 5.251 5.25 5.25 0 0 1-5.249-5.251Z"/><path d="M445.517 353.61a5.25 5.25 0 1 1 10.498 0 5.25 5.25 0 1 1-10.498 0ZM424.523 353.61a5.25 5.25 0 0 1 5.248-5.252 5.25 5.25 0 0 1 5.249 5.252 5.25 5.25 0 0 1-5.249 5.251 5.25 5.25 0 0 1-5.248-5.251ZM487.507 343.107a5.25 5.25 0 0 1 5.249-5.251 5.25 5.25 0 0 1 5.248 5.251 5.25 5.25 0 0 1-5.248 5.251 5.25 5.25 0 0 1-5.249-5.251Z"/><path d="M477.01 343.107a5.25 5.25 0 0 1 5.248-5.251 5.25 5.25 0 0 1 5.249 5.251 5.25 5.25 0 0 1-5.249 5.251 5.25 5.25 0 0 1-5.248-5.251ZM435.02 343.107a5.25 5.25 0 0 1 5.249-5.251 5.25 5.25 0 0 1 5.248 5.251 5.25 5.25 0 0 1-5.248 5.251 5.25 5.25 0 0 1-5.249-5.251ZM498.005 332.605a5.25 5.25 0 1 1 10.497 0 5.25 5.25 0 1 1-10.497 0Z"/><path d="M487.507 332.605a5.25 5.25 0 0 1 5.249-5.251 5.25 5.25 0 0 1 5.248 5.251 5.25 5.25 0 0 1-5.248 5.251 5.25 5.25 0 0 1-5.249-5.251ZM466.512 332.605a5.25 5.25 0 1 1 10.498 0 5.25 5.25 0 1 1-10.498 0ZM445.517 332.605a5.25 5.25 0 1 1 10.498 0 5.25 5.25 0 1 1-10.498 0Z"/><path d="M435.02 332.605a5.25 5.25 0 0 1 5.249-5.251 5.25 5.25 0 0 1 5.248 5.251 5.25 5.25 0 0 1-5.248 5.251 5.25 5.25 0 0 1-5.249-5.251ZM508.502 322.102a5.25 5.25 0 0 1 5.249-5.251 5.25 5.25 0 0 1 5.248 5.251 5.25 5.25 0 0 1-5.248 5.252 5.25 5.25 0 0 1-5.249-5.252ZM487.507 322.102a5.25 5.25 0 0 1 5.249-5.251 5.25 5.25 0 0 1 5.248 5.251 5.25 5.25 0 0 1-5.248 5.252 5.25 5.25 0 0 1-5.249-5.252Z"/><path d="M477.01 322.102a5.25 5.25 0 0 1 5.248-5.251 5.25 5.25 0 0 1 5.249 5.251 5.25 5.25 0 0 1-5.249 5.252 5.25 5.25 0 0 1-5.248-5.252ZM508.502 311.6a5.25 5.25 0 0 1 5.249-5.251 5.25 5.25 0 0 1 5.248 5.251 5.25 5.25 0 0 1-5.248 5.251 5.25 5.25 0 0 1-5.249-5.251Z"/><path d="M498.005 311.6a5.25 5.25 0 1 1 10.497 0 5.25 5.25 0 1 1-10.497 0ZM477.01 311.6a5.25 5.25 0 0 1 5.248-5.251 5.25 5.25 0 0 1 5.249 5.251 5.25 5.25 0 0 1-5.249 5.251 5.25 5.25 0 0 1-5.248-5.251ZM456.015 311.6a5.25 5.25 0 0 1 5.249-5.251 5.25 5.25 0 0 1 5.248 5.251 5.25 5.25 0 0 1-5.248 5.251 5.25 5.25 0 0 1-5.249-5.251ZM435.02 311.6a5.25 5.25 0 0 1 5.249-5.251 5.25 5.25 0 0 1 5.248 5.251 5.25 5.25 0 0 1-5.248 5.251 5.25 5.25 0 0 1-5.249-5.251ZM508.502 301.098a5.25 5.25 0 0 1 5.249-5.252 5.25 5.25 0 0 1 5.248 5.252 5.25 5.25 0 0 1-5.248 5.251 5.25 5.25 0 0 1-5.249-5.251ZM424.523 301.098a5.25 5.25 0 0 1 5.248-5.252 5.25 5.25 0 0 1 5.249 5.252 5.25 5.25 0 0 1-5.249 5.251 5.25 5.25 0 0 1-5.248-5.251ZM518.999 290.595a5.25 5.25 0 1 1 10.498 0 5.25 5.25 0 1 1-10.498 0Z"/><path d="M508.502 290.595a5.25 5.25 0 0 1 5.249-5.251 5.25 5.25 0 0 1 5.248 5.251 5.25 5.25 0 0 1-5.248 5.251 5.25 5.25 0 0 1-5.249-5.251Z"/><path d="M498.005 290.595a5.25 5.25 0 1 1 10.497 0 5.25 5.25 0 1 1-10.497 0Z"/><path d="M487.507 290.595a5.25 5.25 0 0 1 5.249-5.251 5.25 5.25 0 0 1 5.248 5.251 5.25 5.25 0 0 1-5.248 5.251 5.25 5.25 0 0 1-5.249-5.251Z"/><path d="M477.01 290.595a5.25 5.25 0 0 1 5.248-5.251 5.25 5.25 0 0 1 5.249 5.251 5.25 5.25 0 0 1-5.249 5.251 5.25 5.25 0 0 1-5.248-5.251ZM456.466 291.306a5.25 5.25 0 1 1 10.498 0 5.25 5.25 0 1 1-10.498 0ZM508.502 280.093a5.25 5.25 0 0 1 5.249-5.251 5.25 5.25 0 0 1 5.248 5.251 5.25 5.25 0 0 1-5.248 5.251 5.25 5.25 0 0 1-5.249-5.251Z"/><path d="M498.005 280.093a5.25 5.25 0 1 1 10.497 0 5.25 5.25 0 1 1-10.497 0ZM466.512 280.093a5.25 5.25 0 1 1 10.498 0 5.25 5.25 0 1 1-10.498 0ZM435.02 280.093a5.25 5.25 0 0 1 5.249-5.251 5.25 5.25 0 0 1 5.248 5.251 5.25 5.25 0 0 1-5.248 5.251 5.25 5.25 0 0 1-5.249-5.251Z"/><path d="M424.523 280.093a5.25 5.25 0 0 1 5.248-5.251 5.25 5.25 0 0 1 5.249 5.251 5.25 5.25 0 0 1-5.249 5.251 5.25 5.25 0 0 1-5.248-5.251ZM498.005 269.59a5.25 5.25 0 1 1 10.497 0 5.25 5.25 0 1 1-10.497 0ZM477.01 269.59a5.25 5.25 0 0 1 5.248-5.251 5.25 5.25 0 0 1 5.249 5.251 5.25 5.25 0 0 1-5.249 5.252 5.25 5.25 0 0 1-5.248-5.252ZM456.015 269.59a5.25 5.25 0 0 1 5.249-5.251 5.25 5.25 0 0 1 5.248 5.251 5.25 5.25 0 0 1-5.248 5.252 5.25 5.25 0 0 1-5.249-5.252ZM435.02 269.59a5.25 5.25 0 0 1 5.249-5.251 5.25 5.25 0 0 1 5.248 5.251 5.25 5.25 0 0 1-5.248 5.252 5.25 5.25 0 0 1-5.249-5.252Z"/><path d="M424.523 269.59a5.25 5.25 0 0 1 5.248-5.251 5.25 5.25 0 0 1 5.249 5.251 5.25 5.25 0 0 1-5.249 5.252 5.25 5.25 0 0 1-5.248-5.252ZM529.497 259.088a5.25 5.25 0 0 1 5.248-5.251 5.25 5.25 0 0 1 5.249 5.251 5.25 5.25 0 0 1-5.249 5.251 5.25 5.25 0 0 1-5.248-5.251ZM498.005 259.088a5.25 5.25 0 1 1 10.497 0 5.25 5.25 0 1 1-10.497 0ZM477.01 259.088a5.25 5.25 0 0 1 5.248-5.251 5.25 5.25 0 0 1 5.249 5.251 5.25 5.25 0 0 1-5.249 5.251 5.25 5.25 0 0 1-5.248-5.251Z"/><path d="M466.512 259.088a5.25 5.25 0 1 1 10.498 0 5.25 5.25 0 1 1-10.498 0ZM445.517 259.088a5.25 5.25 0 1 1 10.498 0 5.25 5.25 0 1 1-10.498 0Z"/><path d="M435.02 259.088a5.25 5.25 0 0 1 5.249-5.251 5.25 5.25 0 0 1 5.248 5.251 5.25 5.25 0 0 1-5.248 5.251 5.25 5.25 0 0 1-5.249-5.251Z"/><path d="M424.523 259.088a5.25 5.25 0 0 1 5.248-5.251 5.25 5.25 0 0 1 5.249 5.251 5.25 5.25 0 0 1-5.249 5.251 5.25 5.25 0 0 1-5.248-5.251ZM508.502 248.585a5.25 5.25 0 0 1 5.249-5.251 5.25 5.25 0 0 1 5.248 5.251 5.25 5.25 0 0 1-5.248 5.252 5.25 5.25 0 0 1-5.249-5.252ZM456.015 248.585a5.25 5.25 0 0 1 5.249-5.251 5.25 5.25 0 0 1 5.248 5.251 5.25 5.25 0 0 1-5.248 5.252 5.25 5.25 0 0 1-5.249-5.252ZM435.02 248.585a5.25 5.25 0 0 1 5.249-5.251 5.25 5.25 0 0 1 5.248 5.251 5.25 5.25 0 0 1-5.248 5.252 5.25 5.25 0 0 1-5.249-5.252ZM529.497 238.083a5.25 5.25 0 0 1 5.248-5.251 5.25 5.25 0 0 1 5.249 5.251 5.25 5.25 0 0 1-5.249 5.251 5.25 5.25 0 0 1-5.248-5.251ZM508.502 238.083a5.25 5.25 0 0 1 5.249-5.251 5.25 5.25 0 0 1 5.248 5.251 5.25 5.25 0 0 1-5.248 5.251 5.25 5.25 0 0 1-5.249-5.251Z"/><path d="M498.005 238.083a5.25 5.25 0 1 1 10.497 0 5.25 5.25 0 1 1-10.497 0Z"/><path d="M487.507 238.083a5.25 5.25 0 0 1 5.249-5.251 5.25 5.25 0 0 1 5.248 5.251 5.25 5.25 0 0 1-5.248 5.251 5.25 5.25 0 0 1-5.249-5.251Z"/><path d="M487.507 227.471a5.25 5.25 0 1 1 10.498 0 5.25 5.25 0 1 1-10.498 0ZM477.01 238.083a5.25 5.25 0 0 1 5.248-5.251 5.25 5.25 0 0 1 5.249 5.251 5.25 5.25 0 0 1-5.249 5.251 5.25 5.25 0 0 1-5.248-5.251Z"/><path d="M466.512 238.083a5.25 5.25 0 1 1 10.498 0 5.25 5.25 0 1 1-10.498 0ZM445.517 238.083a5.25 5.25 0 1 1 10.498 0 5.25 5.25 0 1 1-10.498 0ZM508.502 227.581a5.25 5.25 0 0 1 5.249-5.251 5.25 5.25 0 0 1 5.248 5.251 5.25 5.25 0 0 1-5.248 5.251 5.25 5.25 0 0 1-5.249-5.251Z"/><path d="M466.512 227.581a5.25 5.25 0 1 1 10.498 0 5.25 5.25 0 1 1-10.498 0ZM435.02 227.581a5.25 5.25 0 0 1 5.249-5.251 5.25 5.25 0 0 1 5.248 5.251 5.25 5.25 0 0 1-5.248 5.251 5.25 5.25 0 0 1-5.249-5.251Z"/><path d="M424.523 227.581a5.25 5.25 0 0 1 5.248-5.251 5.25 5.25 0 0 1 5.249 5.251 5.25 5.25 0 0 1-5.249 5.251 5.25 5.25 0 0 1-5.248-5.251ZM529.497 217.078a5.25 5.25 0 0 1 5.248-5.251 5.25 5.25 0 0 1 5.249 5.251 5.25 5.25 0 0 1-5.249 5.251 5.25 5.25 0 0 1-5.248-5.251ZM508.502 217.078a5.25 5.25 0 0 1 5.249-5.251 5.25 5.25 0 0 1 5.248 5.251 5.25 5.25 0 0 1-5.248 5.251 5.25 5.25 0 0 1-5.249-5.251ZM487.507 217.078a5.25 5.25 0 0 1 5.249-5.251 5.25 5.25 0 0 1 5.248 5.251 5.25 5.25 0 0 1-5.248 5.251 5.25 5.25 0 0 1-5.249-5.251ZM466.512 217.078a5.25 5.25 0 1 1 10.498 0 5.25 5.25 0 1 1-10.498 0Z"/><path d="M456.015 217.078a5.25 5.25 0 0 1 5.249-5.251 5.25 5.25 0 0 1 5.248 5.251 5.25 5.25 0 0 1-5.248 5.251 5.25 5.25 0 0 1-5.249-5.251Z"/><path d="M445.517 217.078a5.25 5.25 0 1 1 10.498 0 5.25 5.25 0 1 1-10.498 0Z"/><path d="M435.02 217.078a5.25 5.25 0 0 1 5.249-5.251 5.25 5.25 0 0 1 5.248 5.251 5.25 5.25 0 0 1-5.248 5.251 5.25 5.25 0 0 1-5.249-5.251ZM518.553 271.497a5.25 5.25 0 1 1 10.498 0 5.25 5.25 0 1 1-10.498 0ZM508.502 206.576a5.25 5.25 0 0 1 5.249-5.251 5.25 5.25 0 0 1 5.248 5.251 5.25 5.25 0 0 1-5.248 5.251 5.25 5.25 0 0 1-5.249-5.251ZM466.512 206.576a5.25 5.25 0 1 1 10.498 0 5.25 5.25 0 1 1-10.498 0ZM445.517 206.576a5.25 5.25 0 1 1 10.498 0 5.25 5.25 0 1 1-10.498 0ZM424.523 206.576a5.25 5.25 0 0 1 5.248-5.251 5.25 5.25 0 0 1 5.249 5.251 5.25 5.25 0 0 1-5.249 5.251 5.25 5.25 0 0 1-5.248-5.251Z"/><path d="M518.553 260.994a5.25 5.25 0 1 1 10.498 0 5.25 5.25 0 1 1-10.498 0ZM508.502 196.074a5.25 5.25 0 0 1 5.249-5.252 5.25 5.25 0 0 1 5.248 5.252 5.25 5.25 0 0 1-5.248 5.251 5.25 5.25 0 0 1-5.249-5.251ZM487.507 196.074a5.25 5.25 0 0 1 5.249-5.252 5.25 5.25 0 0 1 5.248 5.252 5.25 5.25 0 0 1-5.248 5.251 5.25 5.25 0 0 1-5.249-5.251Z"/><path d="M477.01 196.074a5.25 5.25 0 0 1 5.248-5.252 5.25 5.25 0 0 1 5.249 5.252 5.25 5.25 0 0 1-5.249 5.251 5.25 5.25 0 0 1-5.248-5.251Z"/><path d="M466.512 196.074a5.25 5.25 0 1 1 10.498 0 5.25 5.25 0 1 1-10.498 0Z"/><path d="M456.015 196.074a5.25 5.25 0 0 1 5.249-5.252 5.25 5.25 0 0 1 5.248 5.252 5.25 5.25 0 0 1-5.248 5.251 5.25 5.25 0 0 1-5.249-5.251ZM435.02 196.074a5.25 5.25 0 0 1 5.249-5.252 5.25 5.25 0 0 1 5.248 5.252 5.25 5.25 0 0 1-5.248 5.251 5.25 5.25 0 0 1-5.249-5.251ZM508.502 185.571a5.25 5.25 0 0 1 5.249-5.251 5.25 5.25 0 0 1 5.248 5.251 5.25 5.25 0 0 1-5.248 5.251 5.25 5.25 0 0 1-5.249-5.251Z"/><path d="M498.005 185.571a5.25 5.25 0 1 1 10.497 0 5.25 5.25 0 1 1-10.497 0ZM466.512 185.571a5.25 5.25 0 1 1 10.498 0 5.25 5.25 0 1 1-10.498 0Z"/><path d="M456.015 185.571a5.25 5.25 0 0 1 5.249-5.251 5.25 5.25 0 0 1 5.248 5.251 5.25 5.25 0 0 1-5.248 5.251 5.25 5.25 0 0 1-5.249-5.251ZM424.523 185.571a5.25 5.25 0 0 1 5.248-5.251 5.25 5.25 0 0 1 5.249 5.251 5.25 5.25 0 0 1-5.249 5.251 5.25 5.25 0 0 1-5.248-5.251ZM466.512 175.069a5.25 5.25 0 0 1 5.249-5.252 5.25 5.25 0 0 1 5.249 5.252 5.25 5.25 0 1 1-10.498 0Z"/><path d="M456.015 175.069a5.25 5.25 0 0 1 5.249-5.252 5.25 5.25 0 0 1 5.248 5.252 5.25 5.25 0 0 1-5.248 5.251 5.25 5.25 0 0 1-5.249-5.251Z"/><path d="M445.517 175.069a5.25 5.25 0 0 1 5.249-5.252 5.25 5.25 0 0 1 5.249 5.252 5.25 5.25 0 1 1-10.498 0ZM424.523 175.069a5.25 5.25 0 0 1 5.248-5.252 5.25 5.25 0 0 1 5.249 5.252 5.25 5.25 0 0 1-5.249 5.251 5.25 5.25 0 0 1-5.248-5.251ZM487.507 164.566a5.25 5.25 0 0 1 5.249-5.251 5.25 5.25 0 0 1 5.248 5.251 5.25 5.25 0 0 1-5.248 5.251 5.25 5.25 0 0 1-5.249-5.251Z"/><path d="M477.01 164.566a5.25 5.25 0 0 1 5.248-5.251 5.25 5.25 0 0 1 5.249 5.251 5.25 5.25 0 0 1-5.249 5.251 5.25 5.25 0 0 1-5.248-5.251ZM435.02 164.566a5.25 5.25 0 0 1 5.249-5.251 5.25 5.25 0 0 1 5.248 5.251 5.25 5.25 0 0 1-5.248 5.251 5.25 5.25 0 0 1-5.249-5.251ZM466.512 154.064a5.25 5.25 0 1 1 10.498 0 5.25 5.25 0 1 1-10.498 0ZM445.517 154.064a5.25 5.25 0 1 1 10.498 0 5.25 5.25 0 1 1-10.498 0Z"/><path d="M435.02 154.064a5.25 5.25 0 0 1 5.249-5.251 5.25 5.25 0 0 1 5.248 5.251 5.25 5.25 0 0 1-5.248 5.251 5.25 5.25 0 0 1-5.249-5.251Z"/></g><g fill="#ff51a8" clip-path="url(#g-standart31)"><path d="M424.52 427.498a5.25 5.25 0 1 1 10.498 0 5.25 5.25 0 1 1-10.498 0ZM435.018 416.995a5.25 5.25 0 0 1 5.249-5.251 5.25 5.25 0 0 1 5.248 5.251 5.25 5.25 0 0 1-5.248 5.252 5.25 5.25 0 0 1-5.249-5.252ZM424.52 406.493a5.25 5.25 0 1 1 10.498 0 5.25 5.25 0 1 1-10.498 0ZM456.013 395.991a5.25 5.25 0 0 1 5.249-5.252 5.25 5.25 0 0 1 5.248 5.252 5.25 5.25 0 0 1-5.248 5.251 5.25 5.25 0 0 1-5.249-5.251Z"/><path d="M445.516 395.991a5.25 5.25 0 1 1 10.497 0 5.25 5.25 0 1 1-10.497 0ZM424.52 395.991a5.25 5.25 0 1 1 10.498 0 5.25 5.25 0 1 1-10.498 0ZM435.018 385.488a5.25 5.25 0 0 1 5.249-5.251 5.25 5.25 0 0 1 5.248 5.251 5.25 5.25 0 0 1-5.248 5.251 5.25 5.25 0 0 1-5.249-5.251ZM466.51 374.986a5.25 5.25 0 1 1 10.498 0 5.25 5.25 0 1 1-10.498 0ZM445.516 374.986a5.25 5.25 0 1 1 10.497 0 5.25 5.25 0 1 1-10.497 0Z"/><path d="M435.018 374.986a5.25 5.25 0 0 1 5.249-5.251 5.25 5.25 0 0 1 5.248 5.251 5.25 5.25 0 0 1-5.248 5.251 5.25 5.25 0 0 1-5.249-5.251Z"/></g><g fill="#ff51a8" clip-path="url(#h-standart31)"><path d="M66.65 364.118a5.25 5.25 0 1 0-10.498 0 5.25 5.25 0 1 0 10.498 0ZM87.644 364.118a5.25 5.25 0 1 0-10.497 0 5.25 5.25 0 1 0 10.497 0Z"/><path d="M98.142 364.118a5.25 5.25 0 1 0-10.498 0 5.25 5.25 0 1 0 10.498 0ZM119.137 364.118a5.25 5.25 0 1 0-10.498 0 5.25 5.25 0 1 0 10.498 0ZM56.152 353.616a5.25 5.25 0 0 0-5.248-5.252 5.25 5.25 0 0 0-5.25 5.252 5.25 5.25 0 1 0 10.498 0Z"/><path d="M98.142 353.616a5.25 5.25 0 0 0-5.249-5.252 5.25 5.25 0 0 0-5.249 5.252 5.25 5.25 0 1 0 10.498 0ZM119.137 353.616a5.25 5.25 0 0 0-5.249-5.252 5.25 5.25 0 0 0-5.249 5.252 5.25 5.25 0 1 0 10.498 0ZM56.152 343.113a5.25 5.25 0 1 0-10.497 0 5.25 5.25 0 0 0 5.248 5.252 5.25 5.25 0 0 0 5.25-5.252Z"/><path d="M66.65 343.113a5.25 5.25 0 1 0-10.498 0 5.25 5.25 0 0 0 5.249 5.252 5.25 5.25 0 0 0 5.248-5.252ZM108.639 343.113a5.25 5.25 0 1 0-10.497 0c0 2.9 2.35 5.252 5.249 5.252a5.25 5.25 0 0 0 5.248-5.252ZM45.655 332.611a5.25 5.25 0 1 0-10.498 0 5.25 5.25 0 1 0 10.498 0Z"/><path d="M56.152 332.611a5.25 5.25 0 1 0-10.497 0 5.25 5.25 0 1 0 10.497 0ZM77.147 332.611a5.25 5.25 0 1 0-10.498 0 5.25 5.25 0 1 0 10.498 0ZM98.142 332.611a5.25 5.25 0 1 0-10.498 0 5.25 5.25 0 1 0 10.498 0Z"/><path d="M108.639 332.611a5.25 5.25 0 1 0-10.497 0 5.25 5.25 0 1 0 10.497 0ZM35.157 322.108a5.25 5.25 0 1 0-10.497 0 5.25 5.25 0 0 0 5.249 5.252 5.25 5.25 0 0 0 5.248-5.252ZM56.152 322.108a5.25 5.25 0 1 0-10.497 0 5.25 5.25 0 0 0 5.248 5.252 5.25 5.25 0 0 0 5.25-5.252Z"/><path d="M66.65 322.108a5.25 5.25 0 1 0-10.498 0 5.25 5.25 0 0 0 5.249 5.252 5.25 5.25 0 0 0 5.248-5.252ZM35.157 311.606a5.25 5.25 0 1 0-10.497 0 5.25 5.25 0 1 0 10.497 0Z"/><path d="M45.655 311.606a5.25 5.25 0 1 0-10.498 0 5.25 5.25 0 1 0 10.498 0ZM66.65 311.606a5.25 5.25 0 1 0-10.498 0 5.25 5.25 0 1 0 10.498 0ZM87.644 311.606a5.25 5.25 0 1 0-10.497 0 5.25 5.25 0 1 0 10.497 0ZM108.639 311.606a5.25 5.25 0 1 0-10.497 0 5.25 5.25 0 1 0 10.497 0ZM35.157 301.104a5.25 5.25 0 0 0-5.248-5.252 5.25 5.25 0 0 0-5.25 5.252 5.25 5.25 0 1 0 10.498 0ZM119.137 301.104a5.25 5.25 0 1 0-10.498 0 5.25 5.25 0 1 0 10.498 0ZM24.66 290.601a5.25 5.25 0 1 0-10.497 0 5.25 5.25 0 1 0 10.497 0Z"/><path d="M35.157 290.601a5.25 5.25 0 1 0-10.497 0 5.25 5.25 0 1 0 10.497 0Z"/><path d="M45.655 290.601a5.25 5.25 0 1 0-10.498 0 5.25 5.25 0 1 0 10.498 0Z"/><path d="M56.152 290.601a5.25 5.25 0 1 0-10.497 0 5.25 5.25 0 1 0 10.497 0Z"/><path d="M66.65 290.601a5.25 5.25 0 1 0-10.498 0 5.25 5.25 0 1 0 10.498 0ZM87.193 291.312a5.25 5.25 0 1 0-10.498 0 5.25 5.25 0 1 0 10.498 0ZM35.157 280.099a5.25 5.25 0 1 0-10.497 0 5.25 5.25 0 1 0 10.497 0Z"/><path d="M45.655 280.099a5.25 5.25 0 1 0-10.498 0 5.25 5.25 0 1 0 10.498 0ZM77.147 280.099a5.25 5.25 0 1 0-10.498 0 5.25 5.25 0 1 0 10.498 0ZM108.639 280.099a5.25 5.25 0 1 0-10.497 0 5.25 5.25 0 1 0 10.497 0Z"/><path d="M119.137 280.099a5.25 5.25 0 1 0-10.498 0 5.25 5.25 0 1 0 10.498 0ZM45.655 269.596a5.25 5.25 0 1 0-10.498 0 5.25 5.25 0 0 0 5.249 5.252 5.25 5.25 0 0 0 5.249-5.252ZM66.65 269.596a5.25 5.25 0 1 0-10.498 0 5.25 5.25 0 0 0 5.249 5.252 5.25 5.25 0 0 0 5.248-5.252ZM87.644 269.596a5.25 5.25 0 1 0-10.497 0 5.25 5.25 0 0 0 5.249 5.252 5.25 5.25 0 0 0 5.248-5.252ZM108.639 269.596a5.25 5.25 0 1 0-10.497 0 5.25 5.25 0 0 0 5.249 5.252 5.25 5.25 0 0 0 5.248-5.252Z"/><path d="M119.137 269.596a5.25 5.25 0 1 0-10.498 0 5.25 5.25 0 1 0 10.498 0ZM14.162 259.094a5.25 5.25 0 1 0-10.497 0 5.25 5.25 0 1 0 10.497 0ZM45.655 259.094a5.25 5.25 0 1 0-10.498 0 5.25 5.25 0 1 0 10.498 0ZM66.65 259.094a5.25 5.25 0 1 0-10.498 0 5.25 5.25 0 1 0 10.498 0Z"/><path d="M77.147 259.094a5.25 5.25 0 1 0-10.498 0 5.25 5.25 0 1 0 10.498 0ZM98.142 259.094a5.25 5.25 0 1 0-10.498 0 5.25 5.25 0 1 0 10.498 0Z"/><path d="M108.639 259.094a5.25 5.25 0 1 0-10.497 0 5.25 5.25 0 1 0 10.497 0Z"/><path d="M119.137 259.094a5.25 5.25 0 1 0-10.498 0 5.25 5.25 0 1 0 10.498 0ZM35.157 248.592a5.25 5.25 0 0 0-5.248-5.252 5.25 5.25 0 0 0-5.25 5.252 5.25 5.25 0 1 0 10.498 0ZM87.644 248.592a5.25 5.25 0 0 0-5.248-5.252 5.25 5.25 0 0 0-5.249 5.252 5.25 5.25 0 1 0 10.497 0ZM108.639 248.592a5.25 5.25 0 0 0-5.248-5.252 5.25 5.25 0 0 0-5.25 5.252 5.25 5.25 0 1 0 10.497 0ZM14.162 238.089a5.25 5.25 0 1 0-10.497 0 5.25 5.25 0 1 0 10.497 0Z"/><path d="M35.157 238.089a5.25 5.25 0 1 0-10.497 0 5.25 5.25 0 1 0 10.497 0Z"/><path d="M45.655 238.089a5.25 5.25 0 1 0-10.498 0 5.25 5.25 0 1 0 10.498 0Z"/><path d="M56.152 238.089a5.25 5.25 0 1 0-10.497 0 5.25 5.25 0 1 0 10.497 0Z"/><path d="M56.152 227.477a5.25 5.25 0 1 0-10.497 0 5.25 5.25 0 0 0 5.248 5.252 5.25 5.25 0 0 0 5.25-5.252ZM66.65 238.089a5.25 5.25 0 1 0-10.498 0 5.25 5.25 0 1 0 10.498 0Z"/><path d="M77.147 238.089a5.25 5.25 0 1 0-10.498 0 5.25 5.25 0 1 0 10.498 0ZM98.142 238.089a5.25 5.25 0 1 0-10.498 0 5.25 5.25 0 1 0 10.498 0ZM35.157 227.587a5.25 5.25 0 1 0-10.497 0 5.25 5.25 0 1 0 10.497 0Z"/><path d="M77.147 227.587a5.25 5.25 0 1 0-10.498 0 5.25 5.25 0 1 0 10.498 0ZM108.639 227.587a5.25 5.25 0 1 0-10.497 0 5.25 5.25 0 1 0 10.497 0Z"/><path d="M119.137 227.587a5.25 5.25 0 1 0-10.498 0 5.25 5.25 0 1 0 10.498 0ZM35.157 217.084a5.25 5.25 0 1 0-10.497 0 5.25 5.25 0 0 0 5.249 5.252 5.25 5.25 0 0 0 5.248-5.252ZM56.152 217.084a5.25 5.25 0 1 0-10.497 0 5.25 5.25 0 0 0 5.248 5.252 5.25 5.25 0 0 0 5.25-5.252ZM77.147 217.084a5.25 5.25 0 1 0-10.498 0 5.25 5.25 0 0 0 5.25 5.252 5.25 5.25 0 0 0 5.248-5.252Z"/><path d="M87.644 217.084a5.25 5.25 0 1 0-10.497 0 5.25 5.25 0 0 0 5.249 5.252 5.25 5.25 0 0 0 5.248-5.252Z"/><path d="M98.142 217.084a5.25 5.25 0 1 0-10.498 0 5.25 5.25 0 0 0 5.25 5.252 5.25 5.25 0 0 0 5.248-5.252Z"/><path d="M108.639 217.084a5.25 5.25 0 1 0-10.497 0 5.25 5.25 0 0 0 5.249 5.252 5.25 5.25 0 0 0 5.248-5.252ZM35.157 206.582a5.25 5.25 0 1 0-10.497 0 5.25 5.25 0 1 0 10.497 0ZM77.147 206.582a5.25 5.25 0 1 0-10.498 0 5.25 5.25 0 1 0 10.498 0ZM98.142 206.582a5.25 5.25 0 1 0-10.498 0 5.25 5.25 0 1 0 10.498 0ZM119.137 206.582a5.25 5.25 0 1 0-10.498 0 5.25 5.25 0 1 0 10.498 0Z"/><path d="M35.157 196.08a5.25 5.25 0 0 0-5.248-5.252 5.25 5.25 0 0 0-5.25 5.252 5.25 5.25 0 1 0 10.498 0ZM56.152 196.08a5.25 5.25 0 0 0-5.248-5.252 5.25 5.25 0 0 0-5.25 5.252 5.25 5.25 0 1 0 10.498 0Z"/><path d="M66.65 196.08a5.25 5.25 0 0 0-5.25-5.252 5.25 5.25 0 0 0-5.248 5.252 5.25 5.25 0 1 0 10.498 0Z"/><path d="M77.147 196.08a5.25 5.25 0 0 0-5.249-5.252 5.25 5.25 0 0 0-5.249 5.252 5.25 5.25 0 1 0 10.498 0Z"/><path d="M87.644 196.08a5.25 5.25 0 0 0-5.248-5.252 5.25 5.25 0 0 0-5.249 5.252 5.25 5.25 0 1 0 10.497 0ZM108.639 196.08a5.25 5.25 0 0 0-5.248-5.252 5.25 5.25 0 0 0-5.25 5.252 5.25 5.25 0 1 0 10.497 0ZM35.157 185.577a5.25 5.25 0 1 0-10.497 0 5.25 5.25 0 1 0 10.497 0ZM14.523 218.363a5.25 5.25 0 1 0-10.497 0 5.25 5.25 0 1 0 10.497 0Z"/><path d="M14.523 207.861a5.25 5.25 0 0 0-5.248-5.252 5.25 5.25 0 0 0-5.25 5.252 5.25 5.25 0 1 0 10.498 0ZM45.655 185.577a5.25 5.25 0 1 0-10.498 0 5.25 5.25 0 1 0 10.498 0ZM77.147 185.577a5.25 5.25 0 1 0-10.498 0 5.25 5.25 0 1 0 10.498 0Z"/><path d="M87.644 185.577a5.25 5.25 0 1 0-10.497 0 5.25 5.25 0 1 0 10.497 0ZM119.137 185.577a5.25 5.25 0 1 0-10.498 0 5.25 5.25 0 1 0 10.498 0ZM77.147 175.075a5.25 5.25 0 1 0-10.498 0 5.25 5.25 0 1 0 10.498 0Z"/><path d="M87.644 175.075a5.25 5.25 0 1 0-10.497 0 5.25 5.25 0 1 0 10.497 0Z"/><path d="M98.142 175.075a5.25 5.25 0 1 0-10.498 0 5.25 5.25 0 1 0 10.498 0ZM119.137 175.075a5.25 5.25 0 1 0-10.498 0 5.25 5.25 0 1 0 10.498 0ZM56.152 164.572a5.25 5.25 0 1 0-10.497 0 5.25 5.25 0 1 0 10.497 0Z"/><path d="M66.65 164.572a5.25 5.25 0 1 0-10.498 0 5.25 5.25 0 1 0 10.498 0ZM108.639 164.572a5.25 5.25 0 1 0-10.497 0 5.25 5.25 0 1 0 10.497 0ZM77.147 154.07a5.25 5.25 0 1 0-10.498 0 5.25 5.25 0 1 0 10.498 0ZM98.142 154.07a5.25 5.25 0 1 0-10.498 0 5.25 5.25 0 1 0 10.498 0Z"/><path d="M108.639 154.07a5.25 5.25 0 1 0-10.497 0 5.25 5.25 0 1 0 10.497 0ZM51.089 158.973a5.25 5.25 0 0 1-5.249-5.252 5.25 5.25 0 1 1 10.498 0 5.25 5.25 0 0 1-5.25 5.252ZM30.095 169.476a5.25 5.25 0 0 1-5.249-5.251 5.25 5.25 0 0 1 5.249-5.252 5.25 5.25 0 0 1 5.248 5.252 5.25 5.25 0 0 1-5.248 5.251Z"/></g><g fill="#ff51a8" clip-path="url(#i-standart31)"><path d="M119.137 427.49a5.25 5.25 0 1 0-10.498 0 5.25 5.25 0 1 0 10.498 0ZM108.639 416.988a5.25 5.25 0 1 0-10.497 0 5.25 5.25 0 1 0 10.497 0ZM119.137 406.486a5.25 5.25 0 1 0-10.498 0 5.25 5.25 0 1 0 10.498 0ZM87.644 395.983a5.25 5.25 0 1 0-10.497 0 5.25 5.25 0 1 0 10.497 0Z"/><path d="M98.142 395.983a5.25 5.25 0 1 0-10.498 0 5.25 5.25 0 1 0 10.498 0ZM119.137 395.983a5.25 5.25 0 1 0-10.498 0 5.25 5.25 0 1 0 10.498 0ZM108.639 385.481a5.25 5.25 0 1 0-10.497 0 5.25 5.25 0 1 0 10.497 0ZM77.147 374.978a5.25 5.25 0 1 0-10.498 0 5.25 5.25 0 0 0 5.25 5.252 5.25 5.25 0 0 0 5.248-5.252ZM98.142 374.978a5.25 5.25 0 1 0-10.498 0 5.25 5.25 0 0 0 5.25 5.252 5.25 5.25 0 0 0 5.248-5.252Z"/><path d="M108.639 374.978a5.25 5.25 0 1 0-10.497 0 5.25 5.25 0 0 0 5.249 5.252 5.25 5.25 0 0 0 5.248-5.252Z"/></g><defs><clipPath id="a-standart31"><path fill="#ff51a8" d="M119.955.507h220.812v149.529H119.955z"/></clipPath><clipPath id="b-standart31"><path fill="#ff51a8" d="M34.768.507H255.58v149.529H34.768z"/></clipPath><clipPath id="c-standart31"><path fill="#ff51a8" d="M341.726.507h178.385v149.529H341.726z"/></clipPath><clipPath id="d-standart31"><path fill="#ff51a8" d="M115.132 588.664h225.633V450.068H115.132z"/></clipPath><clipPath id="e-standart31"><path fill="#ff51a8" d="M340.773 588.664H478.66V450.068H340.773z"/></clipPath><clipPath id="f-standart31"><path fill="#ff51a8" d="M561.998 143.386v225.955H419.183V143.386z"/></clipPath><clipPath id="g-standart31"><path fill="#ff51a8" d="M558.674 364.282v89.636H418.886v-89.636z"/></clipPath><clipPath id="h-standart31"><path fill="#ff51a8" d="M0 143.567v225.741h124.771V143.567z"/></clipPath><clipPath id="i-standart31"><path fill="#ff51a8" d="M0 364.193v225.741h124.771V364.193z"/></clipPath></defs><g transform="translate(120, 150)scale(1.01)" fill="none"><svg width="300" height="300"><style>.background-color{ fill: transparent; }.dot-color{ fill: #ff51a8; }.corners-square-color-0-0{ fill: #ff51a8; }.corners-dot-color-0-0{ fill: #ff51a8; }.corners-square-color-1-0{ fill: #ff51a8; }.corners-dot-color-1-0{ fill: #ff51a8; }.corners-square-color-0-1{ fill: #ff51a8; }.corners-dot-color-0-1{ fill: #ff51a8; }</style><defs/><g class="dot-color"><circle cx="5.5" cy="77.5" r="4.5" transform="rotate(0,5.5,77.5)"/><circle cx="5.5" cy="86.5" r="4.5" transform="rotate(0,5.5,86.5)"/><circle cx="5.5" cy="95.5" r="4.5" transform="rotate(0,5.5,95.5)"/><circle cx="5.5" cy="113.5" r="4.5" transform="rotate(0,5.5,113.5)"/><circle cx="5.5" cy="122.5" r="4.5" transform="rotate(0,5.5,122.5)"/><circle cx="5.5" cy="167.5" r="4.5" transform="rotate(0,5.5,167.5)"/><circle cx="5.5" cy="194.5" r="4.5" transform="rotate(0,5.5,194.5)"/><circle cx="5.5" cy="212.5" r="4.5" transform="rotate(0,5.5,212.5)"/><circle cx="5.5" cy="221.5" r="4.5" transform="rotate(0,5.5,221.5)"/><circle cx="14.5" cy="77.5" r="4.5" transform="rotate(0,14.5,77.5)"/><circle cx="14.5" cy="95.5" r="4.5" transform="rotate(0,14.5,95.5)"/><circle cx="14.5" cy="104.5" r="4.5" transform="rotate(0,14.5,104.5)"/><circle cx="14.5" cy="113.5" r="4.5" transform="rotate(0,14.5,113.5)"/><circle cx="14.5" cy="131.5" r="4.5" transform="rotate(0,14.5,131.5)"/><circle cx="14.5" cy="140.5" r="4.5" transform="rotate(0,14.5,140.5)"/><circle cx="14.5" cy="176.5" r="4.5" transform="rotate(0,14.5,176.5)"/><circle cx="14.5" cy="221.5" r="4.5" transform="rotate(0,14.5,221.5)"/><circle cx="23.5" cy="77.5" r="4.5" transform="rotate(0,23.5,77.5)"/><circle cx="23.5" cy="86.5" r="4.5" transform="rotate(0,23.5,86.5)"/><circle cx="23.5" cy="104.5" r="4.5" transform="rotate(0,23.5,104.5)"/><circle cx="23.5" cy="122.5" r="4.5" transform="rotate(0,23.5,122.5)"/><circle cx="23.5" cy="140.5" r="4.5" transform="rotate(0,23.5,140.5)"/><circle cx="23.5" cy="185.5" r="4.5" transform="rotate(0,23.5,185.5)"/><circle cx="23.5" cy="194.5" r="4.5" transform="rotate(0,23.5,194.5)"/><circle cx="23.5" cy="212.5" r="4.5" transform="rotate(0,23.5,212.5)"/><circle cx="23.5" cy="221.5" r="4.5" transform="rotate(0,23.5,221.5)"/><circle cx="32.5" cy="86.5" r="4.5" transform="rotate(0,32.5,86.5)"/><circle cx="32.5" cy="95.5" r="4.5" transform="rotate(0,32.5,95.5)"/><circle cx="32.5" cy="113.5" r="4.5" transform="rotate(0,32.5,113.5)"/><circle cx="32.5" cy="122.5" r="4.5" transform="rotate(0,32.5,122.5)"/><circle cx="32.5" cy="131.5" r="4.5" transform="rotate(0,32.5,131.5)"/><circle cx="32.5" cy="149.5" r="4.5" transform="rotate(0,32.5,149.5)"/><circle cx="32.5" cy="167.5" r="4.5" transform="rotate(0,32.5,167.5)"/><circle cx="32.5" cy="176.5" r="4.5" transform="rotate(0,32.5,176.5)"/><circle cx="32.5" cy="212.5" r="4.5" transform="rotate(0,32.5,212.5)"/><circle cx="41.5" cy="86.5" r="4.5" transform="rotate(0,41.5,86.5)"/><circle cx="41.5" cy="95.5" r="4.5" transform="rotate(0,41.5,95.5)"/><circle cx="41.5" cy="104.5" r="4.5" transform="rotate(0,41.5,104.5)"/><circle cx="41.5" cy="131.5" r="4.5" transform="rotate(0,41.5,131.5)"/><circle cx="41.5" cy="140.5" r="4.5" transform="rotate(0,41.5,140.5)"/><circle cx="41.5" cy="158.5" r="4.5" transform="rotate(0,41.5,158.5)"/><circle cx="41.5" cy="176.5" r="4.5" transform="rotate(0,41.5,176.5)"/><circle cx="41.5" cy="185.5" r="4.5" transform="rotate(0,41.5,185.5)"/><circle cx="41.5" cy="221.5" r="4.5" transform="rotate(0,41.5,221.5)"/><circle cx="50.5" cy="77.5" r="4.5" transform="rotate(0,50.5,77.5)"/><circle cx="50.5" cy="86.5" r="4.5" transform="rotate(0,50.5,86.5)"/><circle cx="50.5" cy="104.5" r="4.5" transform="rotate(0,50.5,104.5)"/><circle cx="50.5" cy="122.5" r="4.5" transform="rotate(0,50.5,122.5)"/><circle cx="50.5" cy="149.5" r="4.5" transform="rotate(0,50.5,149.5)"/><circle cx="50.5" cy="158.5" r="4.5" transform="rotate(0,50.5,158.5)"/><circle cx="50.5" cy="194.5" r="4.5" transform="rotate(0,50.5,194.5)"/><circle cx="59.5" cy="77.5" r="4.5" transform="rotate(0,59.5,77.5)"/><circle cx="59.5" cy="95.5" r="4.5" transform="rotate(0,59.5,95.5)"/><circle cx="59.5" cy="113.5" r="4.5" transform="rotate(0,59.5,113.5)"/><circle cx="59.5" cy="131.5" r="4.5" transform="rotate(0,59.5,131.5)"/><circle cx="59.5" cy="149.5" r="4.5" transform="rotate(0,59.5,149.5)"/><circle cx="59.5" cy="167.5" r="4.5" transform="rotate(0,59.5,167.5)"/><circle cx="59.5" cy="185.5" r="4.5" transform="rotate(0,59.5,185.5)"/><circle cx="59.5" cy="203.5" r="4.5" transform="rotate(0,59.5,203.5)"/><circle cx="59.5" cy="221.5" r="4.5" transform="rotate(0,59.5,221.5)"/><circle cx="68.5" cy="77.5" r="4.5" transform="rotate(0,68.5,77.5)"/><circle cx="68.5" cy="86.5" r="4.5" transform="rotate(0,68.5,86.5)"/><circle cx="68.5" cy="131.5" r="4.5" transform="rotate(0,68.5,131.5)"/><circle cx="68.5" cy="140.5" r="4.5" transform="rotate(0,68.5,140.5)"/><circle cx="68.5" cy="158.5" r="4.5" transform="rotate(0,68.5,158.5)"/><circle cx="68.5" cy="194.5" r="4.5" transform="rotate(0,68.5,194.5)"/><circle cx="68.5" cy="221.5" r="4.5" transform="rotate(0,68.5,221.5)"/><circle cx="77.5" cy="23.5" r="4.5" transform="rotate(0,77.5,23.5)"/><circle cx="77.5" cy="32.5" r="4.5" transform="rotate(0,77.5,32.5)"/><circle cx="77.5" cy="41.5" r="4.5" transform="rotate(0,77.5,41.5)"/><circle cx="77.5" cy="59.5" r="4.5" transform="rotate(0,77.5,59.5)"/><circle cx="77.5" cy="77.5" r="4.5" transform="rotate(0,77.5,77.5)"/><circle cx="77.5" cy="104.5" r="4.5" transform="rotate(0,77.5,104.5)"/><circle cx="77.5" cy="122.5" r="4.5" transform="rotate(0,77.5,122.5)"/><circle cx="77.5" cy="131.5" r="4.5" transform="rotate(0,77.5,131.5)"/><circle cx="77.5" cy="140.5" r="4.5" transform="rotate(0,77.5,140.5)"/><circle cx="77.5" cy="185.5" r="4.5" transform="rotate(0,77.5,185.5)"/><circle cx="77.5" cy="203.5" r="4.5" transform="rotate(0,77.5,203.5)"/><circle cx="77.5" cy="230.5" r="4.5" transform="rotate(0,77.5,230.5)"/><circle cx="77.5" cy="239.5" r="4.5" transform="rotate(0,77.5,239.5)"/><circle cx="77.5" cy="248.5" r="4.5" transform="rotate(0,77.5,248.5)"/><circle cx="77.5" cy="275.5" r="4.5" transform="rotate(0,77.5,275.5)"/><circle cx="77.5" cy="284.5" r="4.5" transform="rotate(0,77.5,284.5)"/><circle cx="77.5" cy="293.5" r="4.5" transform="rotate(0,77.5,293.5)"/><circle cx="86.5" cy="5.5" r="4.5" transform="rotate(0,86.5,5.5)"/><circle cx="86.5" cy="23.5" r="4.5" transform="rotate(0,86.5,23.5)"/><circle cx="86.5" cy="50.5" r="4.5" transform="rotate(0,86.5,50.5)"/><circle cx="86.5" cy="95.5" r="4.5" transform="rotate(0,86.5,95.5)"/><circle cx="86.5" cy="104.5" r="4.5" transform="rotate(0,86.5,104.5)"/><circle cx="86.5" cy="149.5" r="4.5" transform="rotate(0,86.5,149.5)"/><circle cx="86.5" cy="167.5" r="4.5" transform="rotate(0,86.5,167.5)"/><circle cx="86.5" cy="176.5" r="4.5" transform="rotate(0,86.5,176.5)"/><circle cx="86.5" cy="185.5" r="4.5" transform="rotate(0,86.5,185.5)"/><circle cx="86.5" cy="203.5" r="4.5" transform="rotate(0,86.5,203.5)"/><circle cx="86.5" cy="212.5" r="4.5" transform="rotate(0,86.5,212.5)"/><circle cx="86.5" cy="221.5" r="4.5" transform="rotate(0,86.5,221.5)"/><circle cx="86.5" cy="230.5" r="4.5" transform="rotate(0,86.5,230.5)"/><circle cx="86.5" cy="239.5" r="4.5" transform="rotate(0,86.5,239.5)"/><circle cx="86.5" cy="266.5" r="4.5" transform="rotate(0,86.5,266.5)"/><circle cx="86.5" cy="293.5" r="4.5" transform="rotate(0,86.5,293.5)"/><circle cx="95.5" cy="14.5" r="4.5" transform="rotate(0,95.5,14.5)"/><circle cx="95.5" cy="59.5" r="4.5" transform="rotate(0,95.5,59.5)"/><circle cx="95.5" cy="68.5" r="4.5" transform="rotate(0,95.5,68.5)"/><circle cx="95.5" cy="113.5" r="4.5" transform="rotate(0,95.5,113.5)"/><circle cx="95.5" cy="131.5" r="4.5" transform="rotate(0,95.5,131.5)"/><circle cx="95.5" cy="140.5" r="4.5" transform="rotate(0,95.5,140.5)"/><circle cx="95.5" cy="149.5" r="4.5" transform="rotate(0,95.5,149.5)"/><circle cx="95.5" cy="158.5" r="4.5" transform="rotate(0,95.5,158.5)"/><circle cx="95.5" cy="176.5" r="4.5" transform="rotate(0,95.5,176.5)"/><circle cx="95.5" cy="185.5" r="4.5" transform="rotate(0,95.5,185.5)"/><circle cx="95.5" cy="203.5" r="4.5" transform="rotate(0,95.5,203.5)"/><circle cx="95.5" cy="221.5" r="4.5" transform="rotate(0,95.5,221.5)"/><circle cx="95.5" cy="230.5" r="4.5" transform="rotate(0,95.5,230.5)"/><circle cx="95.5" cy="248.5" r="4.5" transform="rotate(0,95.5,248.5)"/><circle cx="95.5" cy="266.5" r="4.5" transform="rotate(0,95.5,266.5)"/><circle cx="104.5" cy="5.5" r="4.5" transform="rotate(0,104.5,5.5)"/><circle cx="104.5" cy="14.5" r="4.5" transform="rotate(0,104.5,14.5)"/><circle cx="104.5" cy="41.5" r="4.5" transform="rotate(0,104.5,41.5)"/><circle cx="104.5" cy="50.5" r="4.5" transform="rotate(0,104.5,50.5)"/><circle cx="104.5" cy="68.5" r="4.5" transform="rotate(0,104.5,68.5)"/><circle cx="104.5" cy="86.5" r="4.5" transform="rotate(0,104.5,86.5)"/><circle cx="104.5" cy="113.5" r="4.5" transform="rotate(0,104.5,113.5)"/><circle cx="104.5" cy="149.5" r="4.5" transform="rotate(0,104.5,149.5)"/><circle cx="104.5" cy="158.5" r="4.5" transform="rotate(0,104.5,158.5)"/><circle cx="104.5" cy="167.5" r="4.5" transform="rotate(0,104.5,167.5)"/><circle cx="104.5" cy="176.5" r="4.5" transform="rotate(0,104.5,176.5)"/><circle cx="104.5" cy="185.5" r="4.5" transform="rotate(0,104.5,185.5)"/><circle cx="104.5" cy="230.5" r="4.5" transform="rotate(0,104.5,230.5)"/><circle cx="104.5" cy="266.5" r="4.5" transform="rotate(0,104.5,266.5)"/><circle cx="104.5" cy="275.5" r="4.5" transform="rotate(0,104.5,275.5)"/><circle cx="104.5" cy="284.5" r="4.5" transform="rotate(0,104.5,284.5)"/><circle cx="113.5" cy="14.5" r="4.5" transform="rotate(0,113.5,14.5)"/><circle cx="113.5" cy="59.5" r="4.5" transform="rotate(0,113.5,59.5)"/><circle cx="113.5" cy="77.5" r="4.5" transform="rotate(0,113.5,77.5)"/><circle cx="113.5" cy="86.5" r="4.5" transform="rotate(0,113.5,86.5)"/><circle cx="113.5" cy="95.5" r="4.5" transform="rotate(0,113.5,95.5)"/><circle cx="113.5" cy="131.5" r="4.5" transform="rotate(0,113.5,131.5)"/><circle cx="113.5" cy="176.5" r="4.5" transform="rotate(0,113.5,176.5)"/><circle cx="113.5" cy="185.5" r="4.5" transform="rotate(0,113.5,185.5)"/><circle cx="113.5" cy="194.5" r="4.5" transform="rotate(0,113.5,194.5)"/><circle cx="113.5" cy="203.5" r="4.5" transform="rotate(0,113.5,203.5)"/><circle cx="113.5" cy="212.5" r="4.5" transform="rotate(0,113.5,212.5)"/><circle cx="113.5" cy="248.5" r="4.5" transform="rotate(0,113.5,248.5)"/><circle cx="122.5" cy="14.5" r="4.5" transform="rotate(0,122.5,14.5)"/><circle cx="122.5" cy="23.5" r="4.5" transform="rotate(0,122.5,23.5)"/><circle cx="122.5" cy="41.5" r="4.5" transform="rotate(0,122.5,41.5)"/><circle cx="122.5" cy="68.5" r="4.5" transform="rotate(0,122.5,68.5)"/><circle cx="122.5" cy="77.5" r="4.5" transform="rotate(0,122.5,77.5)"/><circle cx="122.5" cy="113.5" r="4.5" transform="rotate(0,122.5,113.5)"/><circle cx="122.5" cy="122.5" r="4.5" transform="rotate(0,122.5,122.5)"/><circle cx="122.5" cy="131.5" r="4.5" transform="rotate(0,122.5,131.5)"/><circle cx="122.5" cy="140.5" r="4.5" transform="rotate(0,122.5,140.5)"/><circle cx="122.5" cy="167.5" r="4.5" transform="rotate(0,122.5,167.5)"/><circle cx="122.5" cy="185.5" r="4.5" transform="rotate(0,122.5,185.5)"/><circle cx="122.5" cy="212.5" r="4.5" transform="rotate(0,122.5,212.5)"/><circle cx="122.5" cy="239.5" r="4.5" transform="rotate(0,122.5,239.5)"/><circle cx="122.5" cy="257.5" r="4.5" transform="rotate(0,122.5,257.5)"/><circle cx="122.5" cy="275.5" r="4.5" transform="rotate(0,122.5,275.5)"/><circle cx="122.5" cy="293.5" r="4.5" transform="rotate(0,122.5,293.5)"/><circle cx="131.5" cy="14.5" r="4.5" transform="rotate(0,131.5,14.5)"/><circle cx="131.5" cy="32.5" r="4.5" transform="rotate(0,131.5,32.5)"/><circle cx="131.5" cy="41.5" r="4.5" transform="rotate(0,131.5,41.5)"/><circle cx="131.5" cy="59.5" r="4.5" transform="rotate(0,131.5,59.5)"/><circle cx="131.5" cy="68.5" r="4.5" transform="rotate(0,131.5,68.5)"/><circle cx="131.5" cy="86.5" r="4.5" transform="rotate(0,131.5,86.5)"/><circle cx="131.5" cy="95.5" r="4.5" transform="rotate(0,131.5,95.5)"/><circle cx="131.5" cy="140.5" r="4.5" transform="rotate(0,131.5,140.5)"/><circle cx="131.5" cy="149.5" r="4.5" transform="rotate(0,131.5,149.5)"/><circle cx="131.5" cy="176.5" r="4.5" transform="rotate(0,131.5,176.5)"/><circle cx="131.5" cy="185.5" r="4.5" transform="rotate(0,131.5,185.5)"/><circle cx="131.5" cy="203.5" r="4.5" transform="rotate(0,131.5,203.5)"/><circle cx="131.5" cy="230.5" r="4.5" transform="rotate(0,131.5,230.5)"/><circle cx="131.5" cy="248.5" r="4.5" transform="rotate(0,131.5,248.5)"/><circle cx="131.5" cy="257.5" r="4.5" transform="rotate(0,131.5,257.5)"/><circle cx="131.5" cy="284.5" r="4.5" transform="rotate(0,131.5,284.5)"/><circle cx="140.5" cy="23.5" r="4.5" transform="rotate(0,140.5,23.5)"/><circle cx="140.5" cy="32.5" r="4.5" transform="rotate(0,140.5,32.5)"/><circle cx="140.5" cy="95.5" r="4.5" transform="rotate(0,140.5,95.5)"/><circle cx="140.5" cy="113.5" r="4.5" transform="rotate(0,140.5,113.5)"/><circle cx="140.5" cy="140.5" r="4.5" transform="rotate(0,140.5,140.5)"/><circle cx="140.5" cy="149.5" r="4.5" transform="rotate(0,140.5,149.5)"/><circle cx="140.5" cy="176.5" r="4.5" transform="rotate(0,140.5,176.5)"/><circle cx="140.5" cy="194.5" r="4.5" transform="rotate(0,140.5,194.5)"/><circle cx="140.5" cy="203.5" r="4.5" transform="rotate(0,140.5,203.5)"/><circle cx="140.5" cy="221.5" r="4.5" transform="rotate(0,140.5,221.5)"/><circle cx="140.5" cy="230.5" r="4.5" transform="rotate(0,140.5,230.5)"/><circle cx="140.5" cy="239.5" r="4.5" transform="rotate(0,140.5,239.5)"/><circle cx="140.5" cy="257.5" r="4.5" transform="rotate(0,140.5,257.5)"/><circle cx="140.5" cy="266.5" r="4.5" transform="rotate(0,140.5,266.5)"/><circle cx="140.5" cy="275.5" r="4.5" transform="rotate(0,140.5,275.5)"/><circle cx="149.5" cy="5.5" r="4.5" transform="rotate(0,149.5,5.5)"/><circle cx="149.5" cy="14.5" r="4.5" transform="rotate(0,149.5,14.5)"/><circle cx="149.5" cy="23.5" r="4.5" transform="rotate(0,149.5,23.5)"/><circle cx="149.5" cy="32.5" r="4.5" transform="rotate(0,149.5,32.5)"/><circle cx="149.5" cy="41.5" r="4.5" transform="rotate(0,149.5,41.5)"/><circle cx="149.5" cy="50.5" r="4.5" transform="rotate(0,149.5,50.5)"/><circle cx="149.5" cy="59.5" r="4.5" transform="rotate(0,149.5,59.5)"/><circle cx="149.5" cy="86.5" r="4.5" transform="rotate(0,149.5,86.5)"/><circle cx="149.5" cy="104.5" r="4.5" transform="rotate(0,149.5,104.5)"/><circle cx="149.5" cy="131.5" r="4.5" transform="rotate(0,149.5,131.5)"/><circle cx="149.5" cy="158.5" r="4.5" transform="rotate(0,149.5,158.5)"/><circle cx="149.5" cy="230.5" r="4.5" transform="rotate(0,149.5,230.5)"/><circle cx="149.5" cy="257.5" r="4.5" transform="rotate(0,149.5,257.5)"/><circle cx="149.5" cy="284.5" r="4.5" transform="rotate(0,149.5,284.5)"/><circle cx="149.5" cy="293.5" r="4.5" transform="rotate(0,149.5,293.5)"/><circle cx="158.5" cy="32.5" r="4.5" transform="rotate(0,158.5,32.5)"/><circle cx="158.5" cy="50.5" r="4.5" transform="rotate(0,158.5,50.5)"/><circle cx="158.5" cy="68.5" r="4.5" transform="rotate(0,158.5,68.5)"/><circle cx="158.5" cy="86.5" r="4.5" transform="rotate(0,158.5,86.5)"/><circle cx="158.5" cy="104.5" r="4.5" transform="rotate(0,158.5,104.5)"/><circle cx="158.5" cy="113.5" r="4.5" transform="rotate(0,158.5,113.5)"/><circle cx="158.5" cy="122.5" r="4.5" transform="rotate(0,158.5,122.5)"/><circle cx="158.5" cy="176.5" r="4.5" transform="rotate(0,158.5,176.5)"/><circle cx="158.5" cy="185.5" r="4.5" transform="rotate(0,158.5,185.5)"/><circle cx="158.5" cy="212.5" r="4.5" transform="rotate(0,158.5,212.5)"/><circle cx="158.5" cy="221.5" r="4.5" transform="rotate(0,158.5,221.5)"/><circle cx="158.5" cy="239.5" r="4.5" transform="rotate(0,158.5,239.5)"/><circle cx="158.5" cy="248.5" r="4.5" transform="rotate(0,158.5,248.5)"/><circle cx="158.5" cy="284.5" r="4.5" transform="rotate(0,158.5,284.5)"/><circle cx="158.5" cy="293.5" r="4.5" transform="rotate(0,158.5,293.5)"/><circle cx="167.5" cy="23.5" r="4.5" transform="rotate(0,167.5,23.5)"/><circle cx="167.5" cy="50.5" r="4.5" transform="rotate(0,167.5,50.5)"/><circle cx="167.5" cy="59.5" r="4.5" transform="rotate(0,167.5,59.5)"/><circle cx="167.5" cy="86.5" r="4.5" transform="rotate(0,167.5,86.5)"/><circle cx="167.5" cy="122.5" r="4.5" transform="rotate(0,167.5,122.5)"/><circle cx="167.5" cy="131.5" r="4.5" transform="rotate(0,167.5,131.5)"/><circle cx="167.5" cy="167.5" r="4.5" transform="rotate(0,167.5,167.5)"/><circle cx="167.5" cy="176.5" r="4.5" transform="rotate(0,167.5,176.5)"/><circle cx="167.5" cy="185.5" r="4.5" transform="rotate(0,167.5,185.5)"/><circle cx="167.5" cy="203.5" r="4.5" transform="rotate(0,167.5,203.5)"/><circle cx="167.5" cy="257.5" r="4.5" transform="rotate(0,167.5,257.5)"/><circle cx="167.5" cy="275.5" r="4.5" transform="rotate(0,167.5,275.5)"/><circle cx="167.5" cy="284.5" r="4.5" transform="rotate(0,167.5,284.5)"/><circle cx="176.5" cy="5.5" r="4.5" transform="rotate(0,176.5,5.5)"/><circle cx="176.5" cy="14.5" r="4.5" transform="rotate(0,176.5,14.5)"/><circle cx="176.5" cy="23.5" r="4.5" transform="rotate(0,176.5,23.5)"/><circle cx="176.5" cy="32.5" r="4.5" transform="rotate(0,176.5,32.5)"/><circle cx="176.5" cy="41.5" r="4.5" transform="rotate(0,176.5,41.5)"/><circle cx="176.5" cy="68.5" r="4.5" transform="rotate(0,176.5,68.5)"/><circle cx="176.5" cy="77.5" r="4.5" transform="rotate(0,176.5,77.5)"/><circle cx="176.5" cy="86.5" r="4.5" transform="rotate(0,176.5,86.5)"/><circle cx="176.5" cy="104.5" r="4.5" transform="rotate(0,176.5,104.5)"/><circle cx="176.5" cy="113.5" r="4.5" transform="rotate(0,176.5,113.5)"/><circle cx="176.5" cy="122.5" r="4.5" transform="rotate(0,176.5,122.5)"/><circle cx="176.5" cy="131.5" r="4.5" transform="rotate(0,176.5,131.5)"/><circle cx="176.5" cy="158.5" r="4.5" transform="rotate(0,176.5,158.5)"/><circle cx="176.5" cy="194.5" r="4.5" transform="rotate(0,176.5,194.5)"/><circle cx="176.5" cy="212.5" r="4.5" transform="rotate(0,176.5,212.5)"/><circle cx="176.5" cy="221.5" r="4.5" transform="rotate(0,176.5,221.5)"/><circle cx="176.5" cy="230.5" r="4.5" transform="rotate(0,176.5,230.5)"/><circle cx="176.5" cy="257.5" r="4.5" transform="rotate(0,176.5,257.5)"/><circle cx="176.5" cy="266.5" r="4.5" transform="rotate(0,176.5,266.5)"/><circle cx="176.5" cy="275.5" r="4.5" transform="rotate(0,176.5,275.5)"/><circle cx="176.5" cy="284.5" r="4.5" transform="rotate(0,176.5,284.5)"/><circle cx="176.5" cy="293.5" r="4.5" transform="rotate(0,176.5,293.5)"/><circle cx="185.5" cy="5.5" r="4.5" transform="rotate(0,185.5,5.5)"/><circle cx="185.5" cy="23.5" r="4.5" transform="rotate(0,185.5,23.5)"/><circle cx="185.5" cy="32.5" r="4.5" transform="rotate(0,185.5,32.5)"/><circle cx="185.5" cy="41.5" r="4.5" transform="rotate(0,185.5,41.5)"/><circle cx="185.5" cy="50.5" r="4.5" transform="rotate(0,185.5,50.5)"/><circle cx="185.5" cy="59.5" r="4.5" transform="rotate(0,185.5,59.5)"/><circle cx="185.5" cy="68.5" r="4.5" transform="rotate(0,185.5,68.5)"/><circle cx="185.5" cy="86.5" r="4.5" transform="rotate(0,185.5,86.5)"/><circle cx="185.5" cy="95.5" r="4.5" transform="rotate(0,185.5,95.5)"/><circle cx="185.5" cy="104.5" r="4.5" transform="rotate(0,185.5,104.5)"/><circle cx="185.5" cy="113.5" r="4.5" transform="rotate(0,185.5,113.5)"/><circle cx="185.5" cy="122.5" r="4.5" transform="rotate(0,185.5,122.5)"/><circle cx="185.5" cy="149.5" r="4.5" transform="rotate(0,185.5,149.5)"/><circle cx="185.5" cy="176.5" r="4.5" transform="rotate(0,185.5,176.5)"/><circle cx="185.5" cy="185.5" r="4.5" transform="rotate(0,185.5,185.5)"/><circle cx="185.5" cy="203.5" r="4.5" transform="rotate(0,185.5,203.5)"/><circle cx="185.5" cy="221.5" r="4.5" transform="rotate(0,185.5,221.5)"/><circle cx="185.5" cy="248.5" r="4.5" transform="rotate(0,185.5,248.5)"/><circle cx="185.5" cy="257.5" r="4.5" transform="rotate(0,185.5,257.5)"/><circle cx="185.5" cy="266.5" r="4.5" transform="rotate(0,185.5,266.5)"/><circle cx="185.5" cy="284.5" r="4.5" transform="rotate(0,185.5,284.5)"/><circle cx="185.5" cy="293.5" r="4.5" transform="rotate(0,185.5,293.5)"/><circle cx="194.5" cy="5.5" r="4.5" transform="rotate(0,194.5,5.5)"/><circle cx="194.5" cy="41.5" r="4.5" transform="rotate(0,194.5,41.5)"/><circle cx="194.5" cy="68.5" r="4.5" transform="rotate(0,194.5,68.5)"/><circle cx="194.5" cy="95.5" r="4.5" transform="rotate(0,194.5,95.5)"/><circle cx="194.5" cy="122.5" r="4.5" transform="rotate(0,194.5,122.5)"/><circle cx="194.5" cy="131.5" r="4.5" transform="rotate(0,194.5,131.5)"/><circle cx="194.5" cy="158.5" r="4.5" transform="rotate(0,194.5,158.5)"/><circle cx="194.5" cy="167.5" r="4.5" transform="rotate(0,194.5,167.5)"/><circle cx="194.5" cy="185.5" r="4.5" transform="rotate(0,194.5,185.5)"/><circle cx="194.5" cy="230.5" r="4.5" transform="rotate(0,194.5,230.5)"/><circle cx="194.5" cy="266.5" r="4.5" transform="rotate(0,194.5,266.5)"/><circle cx="194.5" cy="293.5" r="4.5" transform="rotate(0,194.5,293.5)"/><circle cx="203.5" cy="5.5" r="4.5" transform="rotate(0,203.5,5.5)"/><circle cx="203.5" cy="59.5" r="4.5" transform="rotate(0,203.5,59.5)"/><circle cx="203.5" cy="68.5" r="4.5" transform="rotate(0,203.5,68.5)"/><circle cx="203.5" cy="77.5" r="4.5" transform="rotate(0,203.5,77.5)"/><circle cx="203.5" cy="86.5" r="4.5" transform="rotate(0,203.5,86.5)"/><circle cx="203.5" cy="104.5" r="4.5" transform="rotate(0,203.5,104.5)"/><circle cx="203.5" cy="131.5" r="4.5" transform="rotate(0,203.5,131.5)"/><circle cx="203.5" cy="167.5" r="4.5" transform="rotate(0,203.5,167.5)"/><circle cx="203.5" cy="176.5" r="4.5" transform="rotate(0,203.5,176.5)"/><circle cx="203.5" cy="185.5" r="4.5" transform="rotate(0,203.5,185.5)"/><circle cx="203.5" cy="212.5" r="4.5" transform="rotate(0,203.5,212.5)"/><circle cx="203.5" cy="221.5" r="4.5" transform="rotate(0,203.5,221.5)"/><circle cx="203.5" cy="284.5" r="4.5" transform="rotate(0,203.5,284.5)"/><circle cx="212.5" cy="5.5" r="4.5" transform="rotate(0,212.5,5.5)"/><circle cx="212.5" cy="23.5" r="4.5" transform="rotate(0,212.5,23.5)"/><circle cx="212.5" cy="32.5" r="4.5" transform="rotate(0,212.5,32.5)"/><circle cx="212.5" cy="68.5" r="4.5" transform="rotate(0,212.5,68.5)"/><circle cx="212.5" cy="77.5" r="4.5" transform="rotate(0,212.5,77.5)"/><circle cx="212.5" cy="86.5" r="4.5" transform="rotate(0,212.5,86.5)"/><circle cx="212.5" cy="95.5" r="4.5" transform="rotate(0,212.5,95.5)"/><circle cx="212.5" cy="104.5" r="4.5" transform="rotate(0,212.5,104.5)"/><circle cx="212.5" cy="113.5" r="4.5" transform="rotate(0,212.5,113.5)"/><circle cx="212.5" cy="122.5" r="4.5" transform="rotate(0,212.5,122.5)"/><circle cx="212.5" cy="149.5" r="4.5" transform="rotate(0,212.5,149.5)"/><circle cx="212.5" cy="185.5" r="4.5" transform="rotate(0,212.5,185.5)"/><circle cx="212.5" cy="194.5" r="4.5" transform="rotate(0,212.5,194.5)"/><circle cx="212.5" cy="212.5" r="4.5" transform="rotate(0,212.5,212.5)"/><circle cx="212.5" cy="257.5" r="4.5" transform="rotate(0,212.5,257.5)"/><circle cx="212.5" cy="266.5" r="4.5" transform="rotate(0,212.5,266.5)"/><circle cx="212.5" cy="275.5" r="4.5" transform="rotate(0,212.5,275.5)"/><circle cx="212.5" cy="284.5" r="4.5" transform="rotate(0,212.5,284.5)"/><circle cx="212.5" cy="293.5" r="4.5" transform="rotate(0,212.5,293.5)"/><circle cx="221.5" cy="5.5" r="4.5" transform="rotate(0,221.5,5.5)"/><circle cx="221.5" cy="23.5" r="4.5" transform="rotate(0,221.5,23.5)"/><circle cx="221.5" cy="32.5" r="4.5" transform="rotate(0,221.5,32.5)"/><circle cx="221.5" cy="59.5" r="4.5" transform="rotate(0,221.5,59.5)"/><circle cx="221.5" cy="104.5" r="4.5" transform="rotate(0,221.5,104.5)"/><circle cx="221.5" cy="122.5" r="4.5" transform="rotate(0,221.5,122.5)"/><circle cx="221.5" cy="158.5" r="4.5" transform="rotate(0,221.5,158.5)"/><circle cx="221.5" cy="185.5" r="4.5" transform="rotate(0,221.5,185.5)"/><circle cx="221.5" cy="203.5" r="4.5" transform="rotate(0,221.5,203.5)"/><circle cx="221.5" cy="212.5" r="4.5" transform="rotate(0,221.5,212.5)"/><circle cx="221.5" cy="221.5" r="4.5" transform="rotate(0,221.5,221.5)"/><circle cx="221.5" cy="230.5" r="4.5" transform="rotate(0,221.5,230.5)"/><circle cx="221.5" cy="239.5" r="4.5" transform="rotate(0,221.5,239.5)"/><circle cx="221.5" cy="248.5" r="4.5" transform="rotate(0,221.5,248.5)"/><circle cx="221.5" cy="257.5" r="4.5" transform="rotate(0,221.5,257.5)"/><circle cx="230.5" cy="77.5" r="4.5" transform="rotate(0,230.5,77.5)"/><circle cx="230.5" cy="95.5" r="4.5" transform="rotate(0,230.5,95.5)"/><circle cx="230.5" cy="104.5" r="4.5" transform="rotate(0,230.5,104.5)"/><circle cx="230.5" cy="167.5" r="4.5" transform="rotate(0,230.5,167.5)"/><circle cx="230.5" cy="176.5" r="4.5" transform="rotate(0,230.5,176.5)"/><circle cx="230.5" cy="185.5" r="4.5" transform="rotate(0,230.5,185.5)"/><circle cx="230.5" cy="194.5" r="4.5" transform="rotate(0,230.5,194.5)"/><circle cx="230.5" cy="221.5" r="4.5" transform="rotate(0,230.5,221.5)"/><circle cx="230.5" cy="257.5" r="4.5" transform="rotate(0,230.5,257.5)"/><circle cx="230.5" cy="266.5" r="4.5" transform="rotate(0,230.5,266.5)"/><circle cx="230.5" cy="284.5" r="4.5" transform="rotate(0,230.5,284.5)"/><circle cx="230.5" cy="293.5" r="4.5" transform="rotate(0,230.5,293.5)"/><circle cx="239.5" cy="86.5" r="4.5" transform="rotate(0,239.5,86.5)"/><circle cx="239.5" cy="95.5" r="4.5" transform="rotate(0,239.5,95.5)"/><circle cx="239.5" cy="113.5" r="4.5" transform="rotate(0,239.5,113.5)"/><circle cx="239.5" cy="122.5" r="4.5" transform="rotate(0,239.5,122.5)"/><circle cx="239.5" cy="131.5" r="4.5" transform="rotate(0,239.5,131.5)"/><circle cx="239.5" cy="140.5" r="4.5" transform="rotate(0,239.5,140.5)"/><circle cx="239.5" cy="149.5" r="4.5" transform="rotate(0,239.5,149.5)"/><circle cx="239.5" cy="158.5" r="4.5" transform="rotate(0,239.5,158.5)"/><circle cx="239.5" cy="167.5" r="4.5" transform="rotate(0,239.5,167.5)"/><circle cx="239.5" cy="176.5" r="4.5" transform="rotate(0,239.5,176.5)"/><circle cx="239.5" cy="185.5" r="4.5" transform="rotate(0,239.5,185.5)"/><circle cx="239.5" cy="194.5" r="4.5" transform="rotate(0,239.5,194.5)"/><circle cx="239.5" cy="212.5" r="4.5" transform="rotate(0,239.5,212.5)"/><circle cx="239.5" cy="221.5" r="4.5" transform="rotate(0,239.5,221.5)"/><circle cx="239.5" cy="239.5" r="4.5" transform="rotate(0,239.5,239.5)"/><circle cx="239.5" cy="257.5" r="4.5" transform="rotate(0,239.5,257.5)"/><circle cx="239.5" cy="266.5" r="4.5" transform="rotate(0,239.5,266.5)"/><circle cx="239.5" cy="275.5" r="4.5" transform="rotate(0,239.5,275.5)"/><circle cx="239.5" cy="284.5" r="4.5" transform="rotate(0,239.5,284.5)"/><circle cx="248.5" cy="86.5" r="4.5" transform="rotate(0,248.5,86.5)"/><circle cx="248.5" cy="104.5" r="4.5" transform="rotate(0,248.5,104.5)"/><circle cx="248.5" cy="131.5" r="4.5" transform="rotate(0,248.5,131.5)"/><circle cx="248.5" cy="140.5" r="4.5" transform="rotate(0,248.5,140.5)"/><circle cx="248.5" cy="158.5" r="4.5" transform="rotate(0,248.5,158.5)"/><circle cx="248.5" cy="185.5" r="4.5" transform="rotate(0,248.5,185.5)"/><circle cx="248.5" cy="194.5" r="4.5" transform="rotate(0,248.5,194.5)"/><circle cx="248.5" cy="203.5" r="4.5" transform="rotate(0,248.5,203.5)"/><circle cx="248.5" cy="212.5" r="4.5" transform="rotate(0,248.5,212.5)"/><circle cx="248.5" cy="221.5" r="4.5" transform="rotate(0,248.5,221.5)"/><circle cx="248.5" cy="257.5" r="4.5" transform="rotate(0,248.5,257.5)"/><circle cx="248.5" cy="275.5" r="4.5" transform="rotate(0,248.5,275.5)"/><circle cx="248.5" cy="284.5" r="4.5" transform="rotate(0,248.5,284.5)"/><circle cx="248.5" cy="293.5" r="4.5" transform="rotate(0,248.5,293.5)"/><circle cx="257.5" cy="77.5" r="4.5" transform="rotate(0,257.5,77.5)"/><circle cx="257.5" cy="95.5" r="4.5" transform="rotate(0,257.5,95.5)"/><circle cx="257.5" cy="140.5" r="4.5" transform="rotate(0,257.5,140.5)"/><circle cx="257.5" cy="149.5" r="4.5" transform="rotate(0,257.5,149.5)"/><circle cx="257.5" cy="158.5" r="4.5" transform="rotate(0,257.5,158.5)"/><circle cx="257.5" cy="167.5" r="4.5" transform="rotate(0,257.5,167.5)"/><circle cx="257.5" cy="176.5" r="4.5" transform="rotate(0,257.5,176.5)"/><circle cx="257.5" cy="185.5" r="4.5" transform="rotate(0,257.5,185.5)"/><circle cx="257.5" cy="194.5" r="4.5" transform="rotate(0,257.5,194.5)"/><circle cx="257.5" cy="221.5" r="4.5" transform="rotate(0,257.5,221.5)"/><circle cx="257.5" cy="230.5" r="4.5" transform="rotate(0,257.5,230.5)"/><circle cx="257.5" cy="239.5" r="4.5" transform="rotate(0,257.5,239.5)"/><circle cx="257.5" cy="248.5" r="4.5" transform="rotate(0,257.5,248.5)"/><circle cx="257.5" cy="257.5" r="4.5" transform="rotate(0,257.5,257.5)"/><circle cx="257.5" cy="284.5" r="4.5" transform="rotate(0,257.5,284.5)"/><circle cx="257.5" cy="293.5" r="4.5" transform="rotate(0,257.5,293.5)"/><circle cx="266.5" cy="77.5" r="4.5" transform="rotate(0,266.5,77.5)"/><circle cx="266.5" cy="86.5" r="4.5" transform="rotate(0,266.5,86.5)"/><circle cx="266.5" cy="95.5" r="4.5" transform="rotate(0,266.5,95.5)"/><circle cx="266.5" cy="122.5" r="4.5" transform="rotate(0,266.5,122.5)"/><circle cx="266.5" cy="131.5" r="4.5" transform="rotate(0,266.5,131.5)"/><circle cx="266.5" cy="149.5" r="4.5" transform="rotate(0,266.5,149.5)"/><circle cx="266.5" cy="167.5" r="4.5" transform="rotate(0,266.5,167.5)"/><circle cx="266.5" cy="185.5" r="4.5" transform="rotate(0,266.5,185.5)"/><circle cx="266.5" cy="203.5" r="4.5" transform="rotate(0,266.5,203.5)"/><circle cx="266.5" cy="221.5" r="4.5" transform="rotate(0,266.5,221.5)"/><circle cx="266.5" cy="230.5" r="4.5" transform="rotate(0,266.5,230.5)"/><circle cx="266.5" cy="257.5" r="4.5" transform="rotate(0,266.5,257.5)"/><circle cx="266.5" cy="284.5" r="4.5" transform="rotate(0,266.5,284.5)"/><circle cx="275.5" cy="77.5" r="4.5" transform="rotate(0,275.5,77.5)"/><circle cx="275.5" cy="86.5" r="4.5" transform="rotate(0,275.5,86.5)"/><circle cx="275.5" cy="95.5" r="4.5" transform="rotate(0,275.5,95.5)"/><circle cx="275.5" cy="104.5" r="4.5" transform="rotate(0,275.5,104.5)"/><circle cx="275.5" cy="140.5" r="4.5" transform="rotate(0,275.5,140.5)"/><circle cx="275.5" cy="176.5" r="4.5" transform="rotate(0,275.5,176.5)"/><circle cx="275.5" cy="185.5" r="4.5" transform="rotate(0,275.5,185.5)"/><circle cx="275.5" cy="212.5" r="4.5" transform="rotate(0,275.5,212.5)"/><circle cx="275.5" cy="230.5" r="4.5" transform="rotate(0,275.5,230.5)"/><circle cx="275.5" cy="239.5" r="4.5" transform="rotate(0,275.5,239.5)"/><circle cx="275.5" cy="266.5" r="4.5" transform="rotate(0,275.5,266.5)"/><circle cx="284.5" cy="95.5" r="4.5" transform="rotate(0,284.5,95.5)"/><circle cx="284.5" cy="113.5" r="4.5" transform="rotate(0,284.5,113.5)"/><circle cx="284.5" cy="122.5" r="4.5" transform="rotate(0,284.5,122.5)"/><circle cx="284.5" cy="131.5" r="4.5" transform="rotate(0,284.5,131.5)"/><circle cx="284.5" cy="140.5" r="4.5" transform="rotate(0,284.5,140.5)"/><circle cx="284.5" cy="167.5" r="4.5" transform="rotate(0,284.5,167.5)"/><circle cx="284.5" cy="185.5" r="4.5" transform="rotate(0,284.5,185.5)"/><circle cx="284.5" cy="194.5" r="4.5" transform="rotate(0,284.5,194.5)"/><circle cx="284.5" cy="203.5" r="4.5" transform="rotate(0,284.5,203.5)"/><circle cx="284.5" cy="212.5" r="4.5" transform="rotate(0,284.5,212.5)"/><circle cx="284.5" cy="230.5" r="4.5" transform="rotate(0,284.5,230.5)"/><circle cx="284.5" cy="239.5" r="4.5" transform="rotate(0,284.5,239.5)"/><circle cx="284.5" cy="248.5" r="4.5" transform="rotate(0,284.5,248.5)"/><circle cx="284.5" cy="275.5" r="4.5" transform="rotate(0,284.5,275.5)"/><circle cx="293.5" cy="86.5" r="4.5" transform="rotate(0,293.5,86.5)"/><circle cx="293.5" cy="95.5" r="4.5" transform="rotate(0,293.5,95.5)"/><circle cx="293.5" cy="104.5" r="4.5" transform="rotate(0,293.5,104.5)"/><circle cx="293.5" cy="113.5" r="4.5" transform="rotate(0,293.5,113.5)"/><circle cx="293.5" cy="122.5" r="4.5" transform="rotate(0,293.5,122.5)"/><circle cx="293.5" cy="131.5" r="4.5" transform="rotate(0,293.5,131.5)"/><circle cx="293.5" cy="140.5" r="4.5" transform="rotate(0,293.5,140.5)"/><circle cx="293.5" cy="167.5" r="4.5" transform="rotate(0,293.5,167.5)"/><circle cx="293.5" cy="176.5" r="4.5" transform="rotate(0,293.5,176.5)"/><circle cx="293.5" cy="203.5" r="4.5" transform="rotate(0,293.5,203.5)"/><circle cx="293.5" cy="212.5" r="4.5" transform="rotate(0,293.5,212.5)"/><circle cx="293.5" cy="221.5" r="4.5" transform="rotate(0,293.5,221.5)"/><circle cx="293.5" cy="230.5" r="4.5" transform="rotate(0,293.5,230.5)"/><circle cx="293.5" cy="275.5" r="4.5" transform="rotate(0,293.5,275.5)"/><circle cx="293.5" cy="284.5" r="4.5" transform="rotate(0,293.5,284.5)"/></g><g class="green-dots"/><g class="corners-square-color-0-0"><path clip-rule="evenodd" d="M 1 23.5v 18a 22.5 22.5, 0, 0, 0, 22.5 22.5h 40.5v -40.5a 22.5 22.5, 0, 0, 0, -22.5 -22.5h -18H 1zM 23.5 10h 18a 13.5 13.5, 0, 0, 1, 13.5 13.5v 31.5h -31.5a 13.5 13.5, 0, 0, 1, -13.5 -13.5v -31.5z" transform="rotate(0,32.5,32.5)"/></g><g class="corners-dot-color-0-0"><circle cx="32.5" cy="32.5" r="13.5" transform="rotate(0,32.5,32.5)"/></g><g class="corners-square-color-1-0"><path clip-rule="evenodd" d="M 235 23.5v 18a 22.5 22.5, 0, 0, 0, 22.5 22.5h 40.5v -40.5a 22.5 22.5, 0, 0, 0, -22.5 -22.5h -18H 235zM 257.5 10h 18a 13.5 13.5, 0, 0, 1, 13.5 13.5v 31.5h -31.5a 13.5 13.5, 0, 0, 1, -13.5 -13.5v -31.5z" transform="rotate(90,266.5,32.5)"/></g><g class="corners-dot-color-1-0"><circle cx="266.5" cy="32.5" r="13.5" transform="rotate(90,266.5,32.5)"/></g><g class="corners-square-color-0-1"><path clip-rule="evenodd" d="M 1 257.5v 18a 22.5 22.5, 0, 0, 0, 22.5 22.5h 40.5v -40.5a 22.5 22.5, 0, 0, 0, -22.5 -22.5h -18H 1zM 23.5 244h 18a 13.5 13.5, 0, 0, 1, 13.5 13.5v 31.5h -31.5a 13.5 13.5, 0, 0, 1, -13.5 -13.5v -31.5z" transform="rotate(-90,32.5,266.5)"/></g><g class="corners-dot-color-0-1"><circle cx="32.5" cy="266.5" r="13.5" transform="rotate(-90,32.5,266.5)"/></g></svg></g></g></svg></svg>